<svg version="1.1" xmlns="http://www.w3.org/2000/svg" viewBox="0 0 1228.0619909347997 146.49864909592134" width="1228.0619909347997" height="146.49864909592134" filter="invert(93%) hue-rotate(180deg)">
  <!-- svg-source:excalidraw -->
  
  <defs>
    <style class="style-fonts">
      @font-face {
        font-family: "Virgil";
        src: url("https://excalidraw.com/Virgil.woff2");
      }
      @font-face {
        font-family: "Cascadia";
        src: url("https://excalidraw.com/Cascadia.woff2");
      }
    </style>
  </defs>
  <rect x="0" y="0" width="1228.0619909347997" height="146.49864909592134" fill="#ffffff"></rect><g stroke-opacity="0.7" fill-opacity="0.7" stroke-linecap="round" transform="translate(10 10) rotate(0 604.0309954673999 63.24932454796067)"><path d="M31.62 0 M31.62 0 C284.4 0, 537.18 0, 1176.44 0 M31.62 0 C396.98 0, 762.33 0, 1176.44 0 M1176.44 0 C1197.52 0, 1208.06 10.54, 1208.06 31.62 M1176.44 0 C1197.52 0, 1208.06 10.54, 1208.06 31.62 M1208.06 31.62 C1208.06 55.16, 1208.06 78.7, 1208.06 94.87 M1208.06 31.62 C1208.06 51.97, 1208.06 72.31, 1208.06 94.87 M1208.06 94.87 C1208.06 115.96, 1197.52 126.5, 1176.44 126.5 M1208.06 94.87 C1208.06 115.96, 1197.52 126.5, 1176.44 126.5 M1176.44 126.5 C905.57 126.5, 634.7 126.5, 31.62 126.5 M1176.44 126.5 C833.11 126.5, 489.78 126.5, 31.62 126.5 M31.62 126.5 C10.54 126.5, 0 115.96, 0 94.87 M31.62 126.5 C10.54 126.5, 0 115.96, 0 94.87 M0 94.87 C0 81.7, 0 68.52, 0 31.62 M0 94.87 C0 78.45, 0 62.02, 0 31.62 M0 31.62 C0 10.54, 10.54 0, 31.62 0 M0 31.62 C0 10.54, 10.54 0, 31.62 0" stroke="#495057" stroke-width="1" fill="none"></path></g></svg>