<svg version="1.1" xmlns="http://www.w3.org/2000/svg" viewBox="0 0 1225.0065408951123 818.7628304690352" width="1225.0065408951123" height="818.7628304690352" filter="invert(93%) hue-rotate(180deg)">
  <!-- svg-source:excalidraw -->
  
  <defs>
    <style class="style-fonts">
      @font-face {
        font-family: "Virgil";
        src: url("https://excalidraw.com/Virgil.woff2");
      }
      @font-face {
        font-family: "Cascadia";
        src: url("https://excalidraw.com/Cascadia.woff2");
      }
    </style>
  </defs>
  <rect x="0" y="0" width="1225.0065408951123" height="818.7628304690352" fill="#ffffff"></rect><g stroke-linecap="round" transform="translate(833.585040218386 241.44951305674658) rotate(0 103.60436199203787 229.67921521659446)"><path d="M32 0 M32 0 C72.05 1.08, 108.21 -1.08, 175.21 0 M32 0 C60.8 -1.58, 92.3 -0.43, 175.21 0 M175.21 0 C198.51 0.02, 207.82 11.64, 207.21 32 M175.21 0 C195.17 -0.2, 205.58 9.98, 207.21 32 M207.21 32 C204.3 153.43, 205.35 273.81, 207.21 427.36 M207.21 32 C205.88 162.1, 205.13 292.85, 207.21 427.36 M207.21 427.36 C208.04 447.34, 195.2 460.02, 175.21 459.36 M207.21 427.36 C205.29 449.82, 198.55 459.91, 175.21 459.36 M175.21 459.36 C132.68 460.69, 86.78 457.38, 32 459.36 M175.21 459.36 C138.53 458.88, 101.61 459.22, 32 459.36 M32 459.36 C9.79 459.54, -0.56 446.79, 0 427.36 M32 459.36 C9.14 458.5, 1.15 446.59, 0 427.36 M0 427.36 C0.73 326.85, 0.69 227.95, 0 32 M0 427.36 C2.03 343.85, 2.24 261.31, 0 32 M0 32 C-0.99 8.92, 9.21 -0.07, 32 0 M0 32 C-1.16 8.56, 12.04 0.86, 32 0" stroke="#000000" stroke-width="1" fill="none"></path></g><g stroke-linecap="round" transform="translate(129.02556176558483 241.78906899153253) rotate(0 105.785428565438 240.66176712630954)"><path d="M7.86 8.16 C7.86 8.16, 7.86 8.16, 7.86 8.16 M7.86 8.16 C7.86 8.16, 7.86 8.16, 7.86 8.16 M3.66 19.09 C8.46 14.28, 12.2 10.84, 18.1 2.48 M3.66 19.09 C8.28 12.59, 13.97 7.36, 18.1 2.48 M2.75 26.24 C12.09 16.79, 17.76 10.57, 24.4 1.33 M2.75 26.24 C11.32 17.55, 18.88 7.08, 24.4 1.33 M1.83 33.39 C10.73 22.26, 23.19 9.1, 30.7 0.18 M1.83 33.39 C12.25 19.31, 24.38 7.84, 30.7 0.18 M1.57 39.79 C11.95 28.77, 19.62 18.65, 34.37 2.05 M1.57 39.79 C9.46 30.05, 18.93 19.62, 34.37 2.05 M1.96 45.43 C17.32 27.48, 29.67 11.16, 39.36 2.41 M1.96 45.43 C15.73 29.33, 30.37 12.46, 39.36 2.41 M1.7 51.83 C16.02 35.44, 28.93 24.59, 45 2.02 M1.7 51.83 C11.02 40.5, 21.87 28.19, 45 2.02 M1.44 58.23 C16.33 42.66, 26.88 29.7, 49.99 2.38 M1.44 58.23 C17.87 39.2, 34.07 21.29, 49.99 2.38 M1.83 63.87 C18.19 45.3, 32.85 26.5, 55.63 1.98 M1.83 63.87 C13.42 51.62, 23.94 37.98, 55.63 1.98 M1.57 70.27 C24.99 44.44, 43.96 21.64, 60.62 2.34 M1.57 70.27 C19.44 50.47, 36.21 30.43, 60.62 2.34 M1.97 75.91 C25.37 48.7, 47.61 27.42, 66.26 1.95 M1.97 75.91 C27.13 49.11, 49.92 20.98, 66.26 1.95 M1.71 82.31 C20.28 61.52, 41.08 38, 71.25 2.31 M1.71 82.31 C21.09 61.88, 38.93 42.13, 71.25 2.31 M1.44 88.71 C21.74 68.3, 41.97 45.62, 76.89 1.91 M1.44 88.71 C29.14 56.35, 58.38 24.9, 76.89 1.91 M1.84 94.35 C25.82 66.05, 48.07 36.62, 81.88 2.27 M1.84 94.35 C21.69 70.46, 42.39 48.44, 81.88 2.27 M1.58 100.75 C22.51 76.58, 41.09 52.33, 87.52 1.88 M1.58 100.75 C20.33 79.3, 39.04 58.41, 87.52 1.88 M1.97 106.39 C35.95 65.2, 73.15 25.4, 92.51 2.24 M1.97 106.39 C36.12 67.04, 73.12 25.43, 92.51 2.24 M1.71 112.79 C26.07 87.48, 49.36 58.26, 97.49 2.6 M1.71 112.79 C31.69 79.42, 60.79 46.81, 97.49 2.6 M1.45 119.19 C38.04 77.75, 72.18 39.62, 103.14 2.21 M1.45 119.19 C31.36 83.5, 62.21 48.77, 103.14 2.21 M1.84 124.83 C44.63 74.88, 87.12 25.54, 108.12 2.57 M1.84 124.83 C23.4 100.5, 46.46 75.56, 108.12 2.57 M1.58 131.23 C33.09 96.74, 65.83 58.46, 113.77 2.17 M1.58 131.23 C32.82 94.97, 63.54 60.07, 113.77 2.17 M1.98 136.87 C48.86 82.02, 93.18 32.52, 118.76 2.53 M1.98 136.87 C36.04 99.33, 67.85 63.52, 118.76 2.53 M1.72 143.27 C41.41 101.29, 76.36 59, 124.4 2.14 M1.72 143.27 C37.53 103.77, 72.19 62.4, 124.4 2.14 M1.45 149.67 C38.02 111.08, 70.8 71.61, 129.39 2.5 M1.45 149.67 C37.42 107.94, 74.18 66.02, 129.39 2.5 M1.85 155.31 C37.01 113.4, 71.13 75.48, 135.03 2.1 M1.85 155.31 C28.52 124.83, 55.73 93.43, 135.03 2.1 M1.59 161.71 C37.87 121.17, 76.11 77.93, 140.02 2.46 M1.59 161.71 C50.22 106.37, 98.35 51.28, 140.02 2.46 M1.98 167.35 C30.08 132.31, 58.23 99.01, 145.66 2.07 M1.98 167.35 C55.83 104.67, 109.68 41.94, 145.66 2.07 M1.72 173.75 C55.49 110.62, 108.64 48.03, 150.65 2.43 M1.72 173.75 C60.52 108.02, 115.98 41.96, 150.65 2.43 M1.46 180.14 C45.62 128.64, 91.17 77.74, 155.63 2.79 M1.46 180.14 C40.49 138.15, 76.84 95.54, 155.63 2.79 M1.85 185.79 C51.9 128.6, 100.21 74.94, 161.28 2.39 M1.85 185.79 C46.57 131.58, 92.63 79.38, 161.28 2.39 M1.59 192.19 C56.59 127.07, 110.14 65.05, 166.26 2.75 M1.59 192.19 C51.16 133.51, 101.45 76.13, 166.26 2.75 M1.99 197.83 C38.24 154.62, 78.67 111.01, 171.91 2.36 M1.99 197.83 C62.31 126.98, 121.34 58.19, 171.91 2.36 M1.72 204.23 C38.64 162.36, 73.27 122.17, 176.89 2.72 M1.72 204.23 C68.03 128.02, 134.81 51.44, 176.89 2.72 M1.46 210.62 C71.53 126.33, 144.91 44.68, 182.54 2.32 M1.46 210.62 C47.12 158.33, 90.87 107, 182.54 2.32 M1.86 216.27 C48.44 162.49, 95.83 111.51, 188.18 1.93 M1.86 216.27 C65.87 141.63, 129.66 67.27, 188.18 1.93 M1.6 222.66 C50.95 163.33, 101.88 105.42, 192.51 3.04 M1.6 222.66 C43.76 174.6, 86.07 125.23, 192.51 3.04 M1.99 228.31 C55.47 167.81, 106.78 108.72, 196.18 4.91 M1.99 228.31 C77.07 145.36, 149.59 61.25, 196.18 4.91 M1.73 234.71 C50.78 176.58, 100.92 117.97, 199.86 6.78 M1.73 234.71 C62.54 161.93, 124.39 90.97, 199.86 6.78 M1.47 241.1 C69.34 165.17, 137.47 87.62, 204.19 7.9 M1.47 241.1 C67.14 165.38, 133.83 90.2, 204.19 7.9 M1.86 246.75 C72.42 166.83, 143.77 87.49, 205.9 12.03 M1.86 246.75 C72.45 167.41, 142.39 86.45, 205.9 12.03 M1.6 253.14 C83.49 162.09, 161.01 71.14, 208.26 15.41 M1.6 253.14 C68.6 173.72, 137.11 96.33, 208.26 15.41 M2 258.79 C58.12 194.63, 115.2 129.98, 210.62 18.79 M2 258.79 C66.04 184.66, 133.35 107.98, 210.62 18.79 M1.73 265.19 C49.3 209.28, 97.42 154.94, 211.02 24.43 M1.73 265.19 C47.36 213.73, 91.98 162.23, 211.02 24.43 M1.47 271.58 C77.07 184.29, 152.36 99.81, 212.07 29.32 M1.47 271.58 C50.9 217.5, 98.99 161.95, 212.07 29.32 M1.87 277.23 C70.99 195.7, 142.68 114.66, 213.77 33.45 M1.87 277.23 C61.71 205.53, 123.79 135.92, 213.77 33.45 M1.61 283.62 C60.94 218.26, 119.8 149.9, 213.51 39.85 M1.61 283.62 C56.23 220.97, 110.86 160.12, 213.51 39.85 M2 289.27 C51.23 232, 98.89 175.35, 213.25 46.25 M2 289.27 C75.33 206.83, 148.05 123.5, 213.25 46.25 M1.74 295.66 C59.02 229.77, 116.32 166.41, 213.65 51.89 M1.74 295.66 C76 209.82, 150.16 124.87, 213.65 51.89 M1.48 302.06 C69.55 221.96, 139.14 141.64, 213.38 58.29 M1.48 302.06 C56.87 238.91, 110.81 177.28, 213.38 58.29 M1.87 307.71 C74.33 223.18, 147.14 141.81, 213.78 63.93 M1.87 307.71 C58.17 246.16, 112.82 181.72, 213.78 63.93 M1.61 314.1 C60.73 243.71, 122.08 174.63, 213.52 70.33 M1.61 314.1 C84.49 218.59, 166.28 122.96, 213.52 70.33 M2.01 319.75 C57.94 253.41, 116.56 186.68, 213.26 76.73 M2.01 319.75 C66.9 243.13, 133.62 166.09, 213.26 76.73 M1.74 326.14 C51.52 270.09, 101.8 211.77, 213.65 82.37 M1.74 326.14 C81.68 233.78, 163.95 139.8, 213.65 82.37 M1.48 332.54 C42.95 281.94, 85.02 232.43, 213.39 88.77 M1.48 332.54 C51.44 276.96, 99.31 222.13, 213.39 88.77 M1.88 338.19 C82.33 245.03, 161.19 152.75, 213.78 94.41 M1.88 338.19 C82.42 247, 161.34 156.22, 213.78 94.41 M1.62 344.58 C52.27 287.79, 101.3 230.65, 213.52 100.81 M1.62 344.58 C64.15 274.74, 125.8 204.5, 213.52 100.81 M2.01 350.23 C82.13 258.37, 162.41 166.73, 213.26 107.21 M2.01 350.23 C81.05 260.46, 159.24 169.48, 213.26 107.21 M1.75 356.62 C51.64 298.1, 101.12 238.76, 213.66 112.85 M1.75 356.62 C82.13 262.07, 164.45 167.45, 213.66 112.85 M1.49 363.02 C75.75 276.3, 150.57 188.79, 213.39 119.25 M1.49 363.02 C58.54 296.2, 118.07 227.18, 213.39 119.25 M1.88 368.66 C58.28 306.81, 110.79 244.97, 213.79 124.89 M1.88 368.66 C84.07 273.76, 166.74 179.16, 213.79 124.89 M1.62 375.06 C69.43 295.57, 134.8 220.38, 213.53 131.29 M1.62 375.06 C60.82 308.83, 118.53 241.21, 213.53 131.29 M2.02 380.71 C59.96 314.51, 118.27 245.81, 213.27 137.69 M2.02 380.71 C72.21 299.97, 143.1 217.79, 213.27 137.69 M1.75 387.1 C70.24 311.07, 135.77 234.24, 213.66 143.33 M1.75 387.1 C48.9 333.14, 96.74 277.33, 213.66 143.33 M1.49 393.5 C64.87 323.25, 124.07 250.92, 213.4 149.73 M1.49 393.5 C60.28 325.92, 117.87 260.06, 213.4 149.73 M1.89 399.14 C59.82 334.22, 118.6 267.99, 213.79 155.37 M1.89 399.14 C62.79 327.8, 124.39 256.84, 213.79 155.37 M1.63 405.54 C44.49 355.4, 87.68 304.12, 213.53 161.77 M1.63 405.54 C48.24 354.38, 92.13 303.46, 213.53 161.77 M2.02 411.18 C85.05 316.17, 165.49 221.99, 213.27 168.17 M2.02 411.18 C65.33 339.68, 128.2 268.52, 213.27 168.17 M1.76 417.58 C73.54 335.18, 145.95 251.39, 213.67 173.81 M1.76 417.58 C79.06 330.19, 153.39 243.69, 213.67 173.81 M1.5 423.98 C68.04 348.2, 134.21 272.79, 213.4 180.21 M1.5 423.98 C79.01 335.25, 157.64 245.61, 213.4 180.21 M1.89 429.62 C78.8 342.75, 151.78 259.18, 213.8 185.85 M1.89 429.62 C63.35 357.87, 126.82 284.38, 213.8 185.85 M1.63 436.02 C82.18 345.48, 160.8 253.36, 213.54 192.25 M1.63 436.02 C66.4 360.89, 132.2 284.48, 213.54 192.25 M2.02 441.66 C55.96 376.39, 113.96 313.45, 213.28 198.65 M2.02 441.66 C46 391.2, 89.32 340.94, 213.28 198.65 M0.45 449.57 C74.94 363.18, 153.33 274.96, 213.67 204.29 M0.45 449.57 C46.01 397.05, 90.66 344.28, 213.67 204.29 M0.85 455.21 C62.39 384.22, 123.71 312.74, 213.41 210.69 M0.85 455.21 C49.89 398.7, 99.42 341.74, 213.41 210.69 M1.9 460.1 C67.62 382.72, 135.41 305.86, 213.8 216.33 M1.9 460.1 C53.49 400.55, 106.17 339.39, 213.8 216.33 M3.6 464.24 C82.87 371.64, 162.73 282.7, 213.54 222.73 M3.6 464.24 C74.08 383.22, 143.36 303.66, 213.54 222.73 M4.65 469.13 C81.47 381.19, 158.57 293.54, 213.28 229.13 M4.65 469.13 C61.89 403.96, 119.8 338.11, 213.28 229.13 M7.67 471.75 C59.26 413.22, 110.88 353.35, 213.68 234.77 M7.67 471.75 C51 420.85, 94.35 371.12, 213.68 234.77 M10.69 474.37 C71.28 402.72, 133.05 332.42, 213.41 241.17 M10.69 474.37 C59.07 420.17, 106.21 364.58, 213.41 241.17 M13.05 477.75 C55.84 429.11, 98.28 379.89, 213.81 246.81 M13.05 477.75 C91.58 384.94, 171.27 292.79, 213.81 246.81 M17.39 478.87 C90.29 395.39, 163.37 313.26, 213.55 253.21 M17.39 478.87 C85.71 398.57, 156.1 318.92, 213.55 253.21 M21.72 479.98 C81.35 410.33, 142.98 338.73, 213.29 259.61 M21.72 479.98 C93.97 396.98, 165.28 314.87, 213.29 259.61 M25.39 481.85 C77.31 418.01, 129.57 358.15, 213.68 265.25 M25.39 481.85 C91 405.63, 156.3 330.53, 213.68 265.25 M31.03 481.46 C103.49 399.86, 176.15 316.53, 213.42 271.65 M31.03 481.46 C70.68 435.17, 111.05 389.4, 213.42 271.65 M36.02 481.82 C76.21 438.14, 116.92 392.59, 213.81 277.29 M36.02 481.82 C70.99 440.1, 107.3 398.41, 213.81 277.29 M41.66 481.42 C78.21 436.58, 117.79 392.41, 213.55 283.69 M41.66 481.42 C110.48 400.73, 179.62 321.87, 213.55 283.69 M46.65 481.78 C87.41 435.46, 128.29 388.42, 213.29 290.09 M46.65 481.78 C82.01 440.01, 115.87 401.42, 213.29 290.09 M51.64 482.14 C110.26 412.32, 172.14 346.12, 213.68 295.73 M51.64 482.14 C112.04 415.04, 170.41 346.7, 213.68 295.73 M57.28 481.75 C98.3 438.6, 137.57 392.05, 213.42 302.13 M57.28 481.75 C107.28 422.71, 157.91 364.77, 213.42 302.13 M62.27 482.11 C112.78 422.25, 166.32 363.39, 213.82 307.77 M62.27 482.11 C110.92 423.83, 160.95 365.29, 213.82 307.77 M67.91 481.71 C101.1 446.05, 134.81 406.68, 213.56 314.17 M67.91 481.71 C124.33 414.36, 182.24 347.74, 213.56 314.17 M72.9 482.07 C107.82 441.06, 141.3 402.52, 213.3 320.57 M72.9 482.07 C119.48 428.5, 165.33 374.39, 213.3 320.57 M78.54 481.68 C105.82 448.41, 136.14 414.64, 213.69 326.21 M78.54 481.68 C126.95 424.77, 175.94 368.71, 213.69 326.21 M83.53 482.04 C125.57 437.07, 166.45 389.46, 213.43 332.61 M83.53 482.04 C130.72 428.65, 176.71 373.94, 213.43 332.61 M89.17 481.64 C130.53 436.26, 173.95 389.08, 213.82 338.25 M89.17 481.64 C120.85 447.8, 150.48 413.86, 213.82 338.25 M94.16 482 C137.61 429.68, 184.35 379.67, 213.56 344.65 M94.16 482 C119.62 453.87, 143.38 427.41, 213.56 344.65 M99.8 481.61 C139.51 437.82, 177.43 391.82, 213.3 351.05 M99.8 481.61 C136.21 438.9, 174.54 397.2, 213.3 351.05 M104.79 481.97 C128.56 456.27, 148.15 431.97, 213.69 356.69 M104.79 481.97 C129.09 454.08, 152.98 425.6, 213.69 356.69 M109.78 482.33 C141.19 446.18, 172.18 412.16, 213.43 363.09 M109.78 482.33 C130.68 455.97, 153.1 431.43, 213.43 363.09 M115.42 481.94 C150.8 440.43, 185.3 400.22, 213.83 368.73 M115.42 481.94 C151.7 438.51, 189.58 394.56, 213.83 368.73 M120.41 482.3 C148.21 451.08, 172.95 418.57, 213.57 375.13 M120.41 482.3 C153.52 442.74, 188.28 402.73, 213.57 375.13 M126.05 481.9 C155.66 446.36, 189.98 412.22, 213.3 381.53 M126.05 481.9 C144.17 461.34, 161.67 440.19, 213.3 381.53 M131.04 482.26 C154.57 453.48, 179.11 421.67, 213.7 387.17 M131.04 482.26 C158.86 450.31, 187.49 418.44, 213.7 387.17 M136.68 481.87 C156.32 459.73, 177.15 436.61, 213.44 393.57 M136.68 481.87 C154.59 461.28, 172.15 441.52, 213.44 393.57 M141.67 482.23 C168.13 452.42, 195.58 417.6, 213.83 399.21 M141.67 482.23 C170.15 450.86, 198.31 419.9, 213.83 399.21 M147.31 481.83 C169.53 456.03, 190.12 429.98, 213.57 405.61 M147.31 481.83 C170.9 455.47, 195.17 428.08, 213.57 405.61 M152.3 482.19 C164.43 467.39, 178.58 450.72, 213.31 412 M152.3 482.19 C164.68 468.76, 177.23 453.95, 213.31 412 M157.94 481.8 C178.23 456.53, 202.06 432.23, 213.7 417.65 M157.94 481.8 C173.9 463.45, 188.92 445.86, 213.7 417.65 M162.93 482.16 C182.75 457.96, 199.13 437.81, 213.44 424.05 M162.93 482.16 C174.2 468.8, 185.14 456.75, 213.44 424.05 M167.91 482.52 C186.59 461.84, 205.08 442.55, 213.84 429.69 M167.91 482.52 C179.27 468.48, 191.06 456.01, 213.84 429.69 M173.56 482.12 C185.61 465.94, 199.4 452.56, 213.58 436.09 M173.56 482.12 C186.43 468.45, 199.45 452.48, 213.58 436.09 M178.54 482.48 C186.65 470.37, 199.86 461.38, 213.31 442.48 M178.54 482.48 C191.11 467.22, 202.96 452.7, 213.31 442.48 M182.87 483.6 C192.63 472.57, 202.16 461.07, 212.4 449.64 M182.87 483.6 C191.21 474.15, 199.98 463.7, 212.4 449.64 M188.52 483.2 C198.48 472.5, 205.43 464.99, 211.48 456.79 M188.52 483.2 C193.33 476.51, 198.91 471.08, 211.48 456.79 M195.47 481.3 C200.28 477.92, 203.87 470.87, 207.94 466.96 M195.47 481.3 C201.03 475.13, 204.43 470.24, 207.94 466.96" stroke="#868e96" stroke-width="0.5" fill="none"></path><path d="M32 0 M32 0 C83.5 -0.94, 139.79 -2.39, 179.57 0 M32 0 C78.31 1, 124.93 1.67, 179.57 0 M179.57 0 C199.62 1.44, 210.39 12.49, 211.57 32 M179.57 0 C202.24 -1.34, 213.59 11.41, 211.57 32 M211.57 32 C212.27 117.28, 212.22 202.67, 211.57 449.32 M211.57 32 C209.65 174.71, 209.85 316.21, 211.57 449.32 M211.57 449.32 C210.53 468.83, 200.08 480.99, 179.57 481.32 M211.57 449.32 C212.62 468.71, 200.72 481.98, 179.57 481.32 M179.57 481.32 C132.12 483.11, 89.39 479.86, 32 481.32 M179.57 481.32 C127.38 482.73, 75.86 481.91, 32 481.32 M32 481.32 C9.62 483.31, -0.09 469.12, 0 449.32 M32 481.32 C12.65 481.21, -2.19 469.1, 0 449.32 M0 449.32 C-0.95 356.38, -0.38 265.02, 0 32 M0 449.32 C2.19 305.67, 1.83 162.71, 0 32 M0 32 C0.31 9.86, 12.49 -0.2, 32 0 M0 32 C1.96 11.01, 8.44 -1.64, 32 0" stroke="#000000" stroke-width="1" fill="none"></path></g><g stroke-linecap="round" transform="translate(141.97727647899865 255.97572466917882) rotate(0 92.33645131487765 16.38228464072745)"><path d="M2.18 1.9 C2.18 1.9, 2.18 1.9, 2.18 1.9 M2.18 1.9 C2.18 1.9, 2.18 1.9, 2.18 1.9 M1.26 9.05 C2.76 5.95, 5.03 4.61, 8.48 0.75 M1.26 9.05 C4.27 5.82, 6.89 2.6, 8.48 0.75 M1 15.45 C5.05 9.92, 10.95 5.42, 14.12 0.35 M1 15.45 C4.54 10.66, 9.69 6.21, 14.12 0.35 M1.4 21.09 C4.46 15.08, 10.27 10.98, 19.11 0.71 M1.4 21.09 C5.45 16.39, 10.61 11.12, 19.11 0.71 M0.48 28.24 C8.25 21.36, 12.71 12.88, 24.75 0.32 M0.48 28.24 C7.43 21.58, 12.14 13.2, 24.75 0.32 M3.5 30.87 C12.23 19.07, 22.59 8.58, 29.74 0.68 M3.5 30.87 C12.64 19.55, 22.7 10.02, 29.74 0.68 M6.52 33.49 C17.24 22.89, 24.27 11.82, 35.38 0.28 M6.52 33.49 C13.52 25.45, 21.34 16.82, 35.38 0.28 M11.5 33.85 C23.31 20.96, 32.78 10.83, 40.37 0.64 M11.5 33.85 C18.23 24.16, 26.79 15.3, 40.37 0.64 M17.15 33.46 C24.84 22.59, 33.43 13.88, 46.01 0.25 M17.15 33.46 C26.55 22.23, 37.3 11.44, 46.01 0.25 M22.13 33.82 C30.88 24.72, 38.28 18.36, 51 0.61 M22.13 33.82 C27.93 25.9, 33.47 20.11, 51 0.61 M27.78 33.42 C34 24.56, 38.74 20.41, 55.99 0.97 M27.78 33.42 C37.03 22.01, 45.91 11.92, 55.99 0.97 M32.76 33.78 C42.18 21.32, 52.31 12.57, 61.63 0.57 M32.76 33.78 C42.58 22.62, 53.23 11.05, 61.63 0.57 M37.75 34.14 C47.78 21.27, 61.57 9.77, 66.62 0.93 M37.75 34.14 C42.36 28.09, 48.29 20.87, 66.62 0.93 M43.39 33.75 C51.64 23.34, 61.37 12.75, 72.26 0.54 M43.39 33.75 C55.08 19.49, 66.15 6.55, 72.26 0.54 M48.38 34.11 C54.9 25.3, 66.59 14.45, 77.25 0.9 M48.38 34.11 C57.13 26.06, 64.21 16.85, 77.25 0.9 M54.02 33.71 C65.44 21.57, 75.68 10.3, 82.89 0.5 M54.02 33.71 C62.69 24.23, 70.41 17.09, 82.89 0.5 M59.01 34.07 C69.85 21.58, 79.2 7.97, 87.88 0.86 M59.01 34.07 C66.35 24.43, 74.2 17.09, 87.88 0.86 M64.65 33.68 C74.38 22.44, 83.02 12.76, 93.52 0.47 M64.65 33.68 C70.79 26.74, 77.9 18.17, 93.52 0.47 M69.64 34.04 C78.88 25.57, 86.86 15.64, 98.51 0.83 M69.64 34.04 C76.68 27.12, 82.95 18.67, 98.51 0.83 M75.28 33.64 C80.16 27.29, 86.43 17.8, 104.15 0.44 M75.28 33.64 C83.53 25.05, 91.53 16.21, 104.15 0.44 M80.27 34 C85.82 25.91, 93.51 18.51, 109.14 0.8 M80.27 34 C88.22 26.07, 93.47 17.5, 109.14 0.8 M85.91 33.61 C94.93 25.97, 101.51 16.27, 114.12 1.16 M85.91 33.61 C91.73 26.3, 98.92 19.71, 114.12 1.16 M90.9 33.97 C97.76 24.69, 106.09 16.29, 119.77 0.76 M90.9 33.97 C98.13 26.44, 104.93 18.18, 119.77 0.76 M95.89 34.33 C105.5 23.96, 116.02 10.46, 124.75 1.12 M95.89 34.33 C102.26 26.18, 109.93 17.87, 124.75 1.12 M101.53 33.93 C110.72 21.14, 122.05 12.28, 130.4 0.73 M101.53 33.93 C109.64 24.53, 115.51 17.27, 130.4 0.73 M106.52 34.29 C115.4 24.32, 124.16 11.16, 135.38 1.09 M106.52 34.29 C113.86 26.97, 121.6 18.32, 135.38 1.09 M112.16 33.9 C119.95 24.49, 125.83 17.01, 141.03 0.69 M112.16 33.9 C122.82 21.49, 133.06 8.98, 141.03 0.69 M117.15 34.26 C126.17 22.76, 132.98 13.63, 146.01 1.05 M117.15 34.26 C126.25 23.36, 134.36 13.87, 146.01 1.05 M122.79 33.86 C134.32 21.17, 142.36 12.76, 151.66 0.66 M122.79 33.86 C132.27 24.06, 141.39 13.25, 151.66 0.66 M127.78 34.23 C132.93 28.57, 137.6 20.74, 156.64 1.02 M127.78 34.23 C136.44 24.98, 143.98 13.27, 156.64 1.02 M133.42 33.83 C143.01 20.92, 157.11 7.58, 162.29 0.62 M133.42 33.83 C141.64 23.12, 151.71 13.67, 162.29 0.62 M138.41 34.19 C149.42 22.76, 157.99 11.63, 167.27 0.98 M138.41 34.19 C144.46 25.72, 151.06 19.01, 167.27 0.98 M144.05 33.8 C153.3 23.98, 160.98 11.89, 172.92 0.59 M144.05 33.8 C151.12 25.98, 159.2 16.39, 172.92 0.59 M149.04 34.16 C155.84 24.42, 161.91 17.28, 177.9 0.95 M149.04 34.16 C157.36 23.16, 166.97 12.78, 177.9 0.95 M154.03 34.52 C158.43 28.2, 166.01 21.77, 182.24 2.06 M154.03 34.52 C161.99 25.69, 168.56 17.64, 182.24 2.06 M159.67 34.12 C168.21 22.13, 179.01 12.49, 184.6 5.44 M159.67 34.12 C166.8 25.75, 173.11 17.76, 184.6 5.44 M164.66 34.48 C169.37 31.6, 174.34 25.31, 184.99 11.09 M164.66 34.48 C171.48 25.61, 179.24 18.17, 184.99 11.09 M170.3 34.09 C174.08 29.77, 176.92 26.43, 184.73 17.48 M170.3 34.09 C173.34 29.66, 176.19 26.78, 184.73 17.48 M176.6 32.94 C179.54 29.46, 182.69 24.67, 185.13 23.13 M176.6 32.94 C179.07 30.47, 180.97 28.42, 185.13 23.13" stroke="#868e96" stroke-width="0.5" fill="none"></path><path d="M8.19 0 M8.19 0 C68.48 2.05, 129.54 -0.43, 176.48 0 M8.19 0 C57.19 1.43, 106.31 0.39, 176.48 0 M176.48 0 C183.45 0.31, 184.7 1.46, 184.67 8.19 M176.48 0 C181.95 -0.62, 184.13 4.7, 184.67 8.19 M184.67 8.19 C185.78 11.71, 183.84 18.08, 184.67 24.57 M184.67 8.19 C185.35 14.74, 184.63 20.11, 184.67 24.57 M184.67 24.57 C183.4 29.47, 180.46 30.98, 176.48 32.76 M184.67 24.57 C185.35 32.13, 181.46 35.03, 176.48 32.76 M176.48 32.76 C125.48 35.53, 73.33 33.33, 8.19 32.76 M176.48 32.76 C129.86 31.51, 83.35 30.88, 8.19 32.76 M8.19 32.76 C3.55 31.45, -1.14 28.07, 0 24.57 M8.19 32.76 C2.78 30.92, -0.99 28.17, 0 24.57 M0 24.57 C0.7 20.09, 1.36 16.2, 0 8.19 M0 24.57 C0.1 18.57, 0.48 12.37, 0 8.19 M0 8.19 C1.46 3.1, 0.98 1.56, 8.19 0 M0 8.19 C-1.25 2.42, 0.45 -1.4, 8.19 0" stroke="#000000" stroke-width="1" fill="none"></path></g><g transform="translate(159.6236293047814 261.1046964529337) rotate(0 61 10.5)"><text x="0" y="15" font-family="Virgil, Segoe UI Emoji" font-size="16px" fill="#000000" text-anchor="start" style="white-space: pre;" direction="ltr">https://web.com</text></g><g stroke-linecap="round" transform="translate(137.9767373006407 309.2763535249246) rotate(0 92.78766904846361 34.36579979067369)"><path d="M17.18 0 M17.18 0 C53.56 1.93, 91.4 0.49, 168.39 0 M17.18 0 C54.78 0.04, 91.44 0.4, 168.39 0 M168.39 0 C181.14 0.64, 186.51 6.22, 185.58 17.18 M168.39 0 C179.45 -0.06, 184.23 5.51, 185.58 17.18 M185.58 17.18 C184.1 29.08, 184.61 42.51, 185.58 51.55 M185.58 17.18 C185.36 28.45, 186 40.77, 185.58 51.55 M185.58 51.55 C186.73 61.52, 181.54 67.35, 168.39 68.73 M185.58 51.55 C185.24 65.01, 180.13 67.54, 168.39 68.73 M168.39 68.73 C116.58 70.35, 61.4 71.8, 17.18 68.73 M168.39 68.73 C118.03 69.97, 69.54 70.06, 17.18 68.73 M17.18 68.73 C6.93 69.07, 1.63 61.23, 0 51.55 M17.18 68.73 C3.43 70.79, 1.59 63.04, 0 51.55 M0 51.55 C-0.38 43.98, -0.02 37.13, 0 17.18 M0 51.55 C0.94 44.67, 0.62 37.42, 0 17.18 M0 17.18 C1.16 6.04, 5.4 0.74, 17.18 0 M0 17.18 C-1.42 6.49, 7.92 -1.62, 17.18 0" stroke="#495057" stroke-width="1" fill="none"></path></g><g stroke-linecap="round" transform="translate(137.9767373006407 390.60874956740054) rotate(0 92.78766904846361 13.173558188698962)"><path d="M6.59 0 M6.59 0 C58.05 1.76, 111.67 2.44, 178.99 0 M6.59 0 C68.69 -1.16, 130.85 -1.61, 178.99 0 M178.99 0 C184.04 1.91, 184.16 1.61, 185.58 6.59 M178.99 0 C181.11 2.09, 185.68 3.59, 185.58 6.59 M185.58 6.59 C185.32 9.53, 184.95 14.64, 185.58 19.76 M185.58 6.59 C186.07 9.31, 185.29 13.64, 185.58 19.76 M185.58 19.76 C186.67 23.64, 182.38 24.45, 178.99 26.35 M185.58 19.76 C186.08 24.44, 185.01 24.26, 178.99 26.35 M178.99 26.35 C133.48 24.73, 92.27 27.58, 6.59 26.35 M178.99 26.35 C139.39 26.25, 98.32 26.12, 6.59 26.35 M6.59 26.35 C3.06 25.32, -0.69 23.92, 0 19.76 M6.59 26.35 C3.84 26.68, 2.05 23.37, 0 19.76 M0 19.76 C-0.41 17.33, 1.04 13.97, 0 6.59 M0 19.76 C-0.65 16.05, -0.45 12.92, 0 6.59 M0 6.59 C1.68 3.63, 2.29 1.18, 6.59 0 M0 6.59 C0.39 2.8, 1.19 -0.97, 6.59 0" stroke="#495057" stroke-width="1" fill="none"></path></g><g stroke-linecap="round" transform="translate(141.41334612064202 428.4111389507866) rotate(0 38.94791283852646 32.07477210768138)"><path d="M16.04 0 M16.04 0 C29.58 -0.95, 39.29 -0.24, 61.86 0 M16.04 0 C27.65 -0.21, 36.73 1.05, 61.86 0 M61.86 0 C72.21 -1.16, 76.98 3.65, 77.9 16.04 M61.86 0 C71.09 1.8, 76.55 4.89, 77.9 16.04 M77.9 16.04 C78.49 24.08, 77.41 33.89, 77.9 48.11 M77.9 16.04 C78.64 23.76, 77.02 29.99, 77.9 48.11 M77.9 48.11 C78.9 58.29, 71.34 63.68, 61.86 64.15 M77.9 48.11 C78.06 59.76, 71.33 62.6, 61.86 64.15 M61.86 64.15 C48.7 65.43, 34.25 64.9, 16.04 64.15 M61.86 64.15 C46.92 64.63, 31.1 64.16, 16.04 64.15 M16.04 64.15 C5.61 63.1, -0.28 60.57, 0 48.11 M16.04 64.15 C5.52 64.81, -0.63 57.13, 0 48.11 M0 48.11 C2 35.86, 0.71 24.73, 0 16.04 M0 48.11 C0.59 40.4, -0.92 33.64, 0 16.04 M0 16.04 C-1.39 6.32, 5.6 -1.97, 16.04 0 M0 16.04 C0.5 4.11, 4.73 -1.84, 16.04 0" stroke="#495057" stroke-width="1" fill="none"></path></g><g stroke-linecap="round" transform="translate(230.7644063491034 429.55666240592745) rotate(0 38.94791283852646 32.07477210768138)"><path d="M16.04 0 M16.04 0 C24.74 0.71, 37.85 1.18, 61.86 0 M16.04 0 C27.89 -0.1, 39.66 -0.84, 61.86 0 M61.86 0 C72.27 1.77, 78.05 5.92, 77.9 16.04 M61.86 0 C71.92 -1.68, 79.29 4.15, 77.9 16.04 M77.9 16.04 C78.73 25.62, 76.61 37.32, 77.9 48.11 M77.9 16.04 C77.51 27.67, 77.47 40.36, 77.9 48.11 M77.9 48.11 C78.15 56.83, 72.99 63.08, 61.86 64.15 M77.9 48.11 C77.28 56.96, 70.78 61.99, 61.86 64.15 M61.86 64.15 C46.16 64.31, 32.52 63.21, 16.04 64.15 M61.86 64.15 C45.41 64.83, 30.35 64.1, 16.04 64.15 M16.04 64.15 C5.34 63, -0.7 57, 0 48.11 M16.04 64.15 C3.15 64.33, 1.62 59.31, 0 48.11 M0 48.11 C-0.27 40.12, 1.31 30.09, 0 16.04 M0 48.11 C-0.53 39.05, -0.08 30.47, 0 16.04 M0 16.04 C0.98 6.56, 6.17 1.73, 16.04 0 M0 16.04 C-0.46 6.96, 6.08 1.86, 16.04 0" stroke="#495057" stroke-width="1" fill="none"></path></g><g stroke-linecap="round" transform="translate(142.55883112120227 507.4525265375596) rotate(0 38.94791283852646 32.07477210768138)"><path d="M16.04 0 M16.04 0 C25.82 0.2, 33.98 -0.5, 61.86 0 M16.04 0 C26.37 0.18, 35.09 0.59, 61.86 0 M61.86 0 C74.31 -0.06, 78.9 6.85, 77.9 16.04 M61.86 0 C72.51 -0.72, 77.97 5.25, 77.9 16.04 M77.9 16.04 C76.95 24.97, 78.97 32.75, 77.9 48.11 M77.9 16.04 C78.15 29.25, 77.68 41.39, 77.9 48.11 M77.9 48.11 C76.24 59.43, 73.96 63.62, 61.86 64.15 M77.9 48.11 C75.92 59.04, 72.87 65.59, 61.86 64.15 M61.86 64.15 C53.45 64.69, 44.46 63.92, 16.04 64.15 M61.86 64.15 C51.08 64.5, 40.46 63.47, 16.04 64.15 M16.04 64.15 C6.34 66.02, -0.89 58.7, 0 48.11 M16.04 64.15 C7.56 64.07, 1.19 58.86, 0 48.11 M0 48.11 C-2.04 42.34, -0.54 33.36, 0 16.04 M0 48.11 C-0.34 36.34, 0.76 24.16, 0 16.04 M0 16.04 C1.18 6.34, 6.36 -0.88, 16.04 0 M0 16.04 C-0.73 7.37, 3.6 -2, 16.04 0" stroke="#495057" stroke-width="1" fill="none"></path></g><g stroke-linecap="round" transform="translate(234.20093825994627 505.16147962727746) rotate(0 38.94791283852646 32.07477210768138)"><path d="M16.04 0 M16.04 0 C31.93 -0.47, 45.78 1.19, 61.86 0 M16.04 0 C32.17 0.43, 49.95 0.56, 61.86 0 M61.86 0 C73.57 -1.49, 78.89 7.22, 77.9 16.04 M61.86 0 C71.53 -0.12, 80.11 5.27, 77.9 16.04 M77.9 16.04 C79.58 27.63, 76.14 40.09, 77.9 48.11 M77.9 16.04 C78.26 25.41, 77.64 34.51, 77.9 48.11 M77.9 48.11 C79.67 58.42, 73.73 65.14, 61.86 64.15 M77.9 48.11 C79.07 57.79, 71.82 66.17, 61.86 64.15 M61.86 64.15 C51.82 65.14, 39.42 62.89, 16.04 64.15 M61.86 64.15 C44.47 64.21, 26.8 64.67, 16.04 64.15 M16.04 64.15 C4.73 62.33, 1.02 60.29, 0 48.11 M16.04 64.15 C5.41 62.15, 0.53 59.16, 0 48.11 M0 48.11 C-1.6 35.81, -1.08 24.53, 0 16.04 M0 48.11 C-0.61 39.61, 0.48 31.83, 0 16.04 M0 16.04 C-0.31 5.7, 3.76 1.87, 16.04 0 M0 16.04 C0.36 5.46, 7.2 -1.74, 16.04 0" stroke="#495057" stroke-width="1" fill="none"></path></g><g stroke-linecap="round" transform="translate(143.70431612176435 588.7849610346143) rotate(0 88.20557522789977 32.07477210768138)"><path d="M16.04 0 M16.04 0 C49.66 1.19, 82.32 2.71, 160.37 0 M16.04 0 C60.82 -0.65, 107.03 -0.62, 160.37 0 M160.37 0 C170.03 1.51, 175.64 6, 176.41 16.04 M160.37 0 C172.52 0.89, 175.89 7.06, 176.41 16.04 M176.41 16.04 C174.64 25.68, 176.75 32.76, 176.41 48.11 M176.41 16.04 C176.92 22.03, 177.15 29.94, 176.41 48.11 M176.41 48.11 C175.6 57.23, 169.74 63.53, 160.37 64.15 M176.41 48.11 C174.96 59.71, 170.49 63.77, 160.37 64.15 M160.37 64.15 C128.64 62.98, 95.03 64.42, 16.04 64.15 M160.37 64.15 C122.72 65.21, 84.08 65.57, 16.04 64.15 M16.04 64.15 C4.89 65.41, -1.26 57.85, 0 48.11 M16.04 64.15 C7.29 64.23, 2.09 60.11, 0 48.11 M0 48.11 C0.68 35.94, -0.97 26.12, 0 16.04 M0 48.11 C-0.79 37.81, 0.36 28.9, 0 16.04 M0 16.04 C0.72 6.08, 5.08 1.33, 16.04 0 M0 16.04 C2.24 6.91, 7.29 -0.24, 16.04 0" stroke="#495057" stroke-width="1" fill="none"></path></g><g stroke-linecap="round" transform="translate(867.5540532242039 262.21792125479396) rotate(0 14.75247299520015 16.22771534241474)"><path d="M17.83 -0.39 C20.89 -0.29, 23.48 2.24, 25.48 4.8 C27.49 7.36, 29.65 11.43, 29.87 14.98 C30.09 18.53, 28.7 23.19, 26.81 26.08 C24.91 28.98, 21.77 31.48, 18.51 32.37 C15.24 33.26, 10.03 33.14, 7.22 31.42 C4.41 29.7, 2.67 25.51, 1.64 22.06 C0.61 18.62, 0.29 14.02, 1.03 10.75 C1.78 7.47, 3 3.97, 6.11 2.39 C9.22 0.82, 17.07 1.45, 19.71 1.29 C22.35 1.13, 21.92 1.32, 21.94 1.44 M11.76 0.72 C14.56 -0.21, 19.09 -0.07, 21.73 1.49 C24.36 3.05, 26.44 6.89, 27.58 10.09 C28.72 13.3, 29.36 17.68, 28.57 20.7 C27.78 23.72, 25.15 26.48, 22.86 28.21 C20.57 29.94, 17.66 31.14, 14.83 31.11 C12 31.07, 8.45 30.05, 5.87 27.98 C3.29 25.92, -0.1 22.21, -0.64 18.71 C-1.18 15.21, 0.51 9.84, 2.61 6.98 C4.7 4.12, 10.66 2.36, 11.91 1.57 C13.16 0.77, 10.2 2.08, 10.08 2.2" stroke="#000000" stroke-width="1" fill="none"></path></g><g stroke-linecap="round"><g transform="translate(848.5380932877988 270.69107968626076) rotate(0 -3.54214388973287 3.7546737359728013)"><path d="M0 0 C-1.18 1.25, -5.9 6.26, -7.08 7.51 M0 0 C-1.18 1.25, -5.9 6.26, -7.08 7.51" stroke="#000000" stroke-width="1" fill="none"></path></g></g><mask></mask><g stroke-linecap="round"><g transform="translate(841.7371810148043 278.3421149114406) rotate(0 3.683831642966652 3.683830453892597)"><path d="M0 0 C1.23 1.23, 6.14 6.14, 7.37 7.37 M0 0 C1.23 1.23, 6.14 6.14, 7.37 7.37" stroke="#000000" stroke-width="1" fill="none"></path></g></g><mask></mask><g stroke-linecap="round"><g transform="translate(841.8788663898895 278.3421149114406) rotate(0 7.4620907375297065 0)"><path d="M0 0 C2.49 0, 12.44 0, 14.92 0 M0 0 C2.49 0, 12.44 0, 14.92 0" stroke="#000000" stroke-width="1" fill="none"></path></g></g><mask></mask><g transform="translate(918.2169032684569 268.01924562447175) rotate(0 54 10.5)"><text x="0" y="15" font-family="Virgil, Segoe UI Emoji" font-size="16px" fill="#000000" text-anchor="start" style="white-space: pre;" direction="ltr">website visits</text></g><g stroke-linecap="round" transform="translate(894.1180295856266 241.61331463725946) rotate(0 39.66450530868997 7.437094745379454)"><path d="M3.72 0 M3.72 0 C31.47 0, 59.23 0, 75.61 0 M3.72 0 C24.65 0, 45.59 0, 75.61 0 M75.61 0 C78.09 0, 79.33 1.24, 79.33 3.72 M75.61 0 C78.09 0, 79.33 1.24, 79.33 3.72 M79.33 3.72 C79.33 5.54, 79.33 7.36, 79.33 11.16 M79.33 3.72 C79.33 6.31, 79.33 8.91, 79.33 11.16 M79.33 11.16 C79.33 13.63, 78.09 14.87, 75.61 14.87 M79.33 11.16 C79.33 13.63, 78.09 14.87, 75.61 14.87 M75.61 14.87 C51.8 14.87, 27.98 14.87, 3.72 14.87 M75.61 14.87 C56.71 14.87, 37.82 14.87, 3.72 14.87 M3.72 14.87 C1.24 14.87, 0 13.63, 0 11.16 M3.72 14.87 C1.24 14.87, 0 13.63, 0 11.16 M0 11.16 C0 8.26, 0 5.37, 0 3.72 M0 11.16 C0 9.61, 0 8.06, 0 3.72 M0 3.72 C0 1.24, 1.24 0, 3.72 0 M0 3.72 C0 1.24, 1.24 0, 3.72 0" stroke="#000000" stroke-width="1" fill="none"></path></g><g stroke-linecap="round"><g transform="translate(832.2796019234229 297.12030241095727) rotate(0 104.39713652330965 0)"><path d="M0 0 C34.8 0, 174 0, 208.79 0 M0 0 C34.8 0, 174 0, 208.79 0" stroke="#000000" stroke-width="1" fill="none"></path></g></g><mask></mask><g stroke-linecap="round"><g transform="translate(837.569075653264 260.5213084727852) rotate(0 100.79724637618756 0)"><path d="M0 0 C33.6 0, 168 0, 201.59 0 M0 0 C33.6 0, 168 0, 201.59 0" stroke="#000000" stroke-width="1" fill="none"></path></g></g><mask></mask><g stroke-linecap="round"><g transform="translate(833.4072288903262 660.2050760353109) rotate(0 104.39713652330965 0)"><path d="M0 0 C34.8 0, 174 0, 208.79 0 M0 0 C34.8 0, 174 0, 208.79 0" stroke="#000000" stroke-width="1" fill="none"></path></g></g><mask></mask><g transform="translate(872.8562250608193 668.2324786024278) rotate(0 27.5 7.5)"><text x="0" y="10" font-family="Virgil, Segoe UI Emoji" font-size="11.380069266925032px" fill="#495057" text-anchor="start" style="white-space: pre;" direction="ltr">Messages</text></g><g stroke-linecap="round"><g transform="translate(888.6821658852223 696.0391718424494) rotate(0 44.81725687140579 0)"><path d="M0 0 C14.94 0, 74.7 0, 89.63 0 M0 0 C14.94 0, 74.7 0, 89.63 0" stroke="#495057" stroke-width="1" fill="none"></path></g></g><mask></mask><g stroke-linecap="round" transform="translate(841.9133062645224 668.3326589882176) rotate(0 7.216135866933655 7.216135866933882)"><path d="M3.61 0 M3.61 0 C5.5 0, 7.38 0, 10.82 0 M3.61 0 C5.09 0, 6.58 0, 10.82 0 M10.82 0 C13.23 0, 14.43 1.2, 14.43 3.61 M10.82 0 C13.23 0, 14.43 1.2, 14.43 3.61 M14.43 3.61 C14.43 5.58, 14.43 7.55, 14.43 10.82 M14.43 3.61 C14.43 5.77, 14.43 7.93, 14.43 10.82 M14.43 10.82 C14.43 13.23, 13.23 14.43, 10.82 14.43 M14.43 10.82 C14.43 13.23, 13.23 14.43, 10.82 14.43 M10.82 14.43 C8.9 14.43, 6.97 14.43, 3.61 14.43 M10.82 14.43 C8.33 14.43, 5.84 14.43, 3.61 14.43 M3.61 14.43 C1.2 14.43, 0 13.23, 0 10.82 M3.61 14.43 C1.2 14.43, 0 13.23, 0 10.82 M0 10.82 C0 8.12, 0 5.42, 0 3.61 M0 10.82 C0 9.01, 0 7.2, 0 3.61 M0 3.61 C0 1.2, 1.2 0, 3.61 0 M0 3.61 C0 1.2, 1.2 0, 3.61 0" stroke="#495057" stroke-width="1" fill="none"></path></g><g stroke-linecap="round" transform="translate(1021.4677411669281 666.2102581232416) rotate(0 7.216135866933655 7.216135866933882)"><path d="M3.61 0 M3.61 0 C6.01 0, 8.41 0, 10.82 0 M3.61 0 C5.36 0, 7.1 0, 10.82 0 M10.82 0 C13.23 0, 14.43 1.2, 14.43 3.61 M10.82 0 C13.23 0, 14.43 1.2, 14.43 3.61 M14.43 3.61 C14.43 6.39, 14.43 9.18, 14.43 10.82 M14.43 3.61 C14.43 5.44, 14.43 7.26, 14.43 10.82 M14.43 10.82 C14.43 13.23, 13.23 14.43, 10.82 14.43 M14.43 10.82 C14.43 13.23, 13.23 14.43, 10.82 14.43 M10.82 14.43 C8.84 14.43, 6.85 14.43, 3.61 14.43 M10.82 14.43 C9.1 14.43, 7.38 14.43, 3.61 14.43 M3.61 14.43 C1.2 14.43, 0 13.23, 0 10.82 M3.61 14.43 C1.2 14.43, 0 13.23, 0 10.82 M0 10.82 C0 8.43, 0 6.03, 0 3.61 M0 10.82 C0 8.61, 0 6.4, 0 3.61 M0 3.61 C0 1.2, 1.2 0, 3.61 0 M0 3.61 C0 1.2, 1.2 0, 3.61 0" stroke="#495057" stroke-width="1" fill="none"></path></g><g stroke-linecap="round" transform="translate(976.4730309223833 666.6347354463437) rotate(0 7.216135866933655 7.216135866933882)"><path d="M3.61 0 M3.61 0 C5.58 0, 7.55 0, 10.82 0 M3.61 0 C5.76 0, 7.92 0, 10.82 0 M10.82 0 C13.23 0, 14.43 1.2, 14.43 3.61 M10.82 0 C13.23 0, 14.43 1.2, 14.43 3.61 M14.43 3.61 C14.43 5.2, 14.43 6.79, 14.43 10.82 M14.43 3.61 C14.43 5.68, 14.43 7.74, 14.43 10.82 M14.43 10.82 C14.43 13.23, 13.23 14.43, 10.82 14.43 M14.43 10.82 C14.43 13.23, 13.23 14.43, 10.82 14.43 M10.82 14.43 C8.01 14.43, 5.19 14.43, 3.61 14.43 M10.82 14.43 C8.32 14.43, 5.82 14.43, 3.61 14.43 M3.61 14.43 C1.2 14.43, 0 13.23, 0 10.82 M3.61 14.43 C1.2 14.43, 0 13.23, 0 10.82 M0 10.82 C0 9.21, 0 7.6, 0 3.61 M0 10.82 C0 8.07, 0 5.32, 0 3.61 M0 3.61 C0 1.2, 1.2 0, 3.61 0 M0 3.61 C0 1.2, 1.2 0, 3.61 0" stroke="#495057" stroke-width="1" fill="none"></path></g><g stroke-linecap="round"><g transform="translate(1026.3518086069153 668.6528856191408) rotate(0 2.5051156083409296 -0.11651752807438243)"><path d="M0 0 C0.84 -0.04, 4.18 -0.19, 5.01 -0.23 M0 0 C0.84 -0.04, 4.18 -0.19, 5.01 -0.23" stroke="#495057" stroke-width="1" fill="none"></path></g></g><mask></mask><g stroke-linecap="round"><g transform="translate(1027.050900085479 675.6439001453573) rotate(0 2.5051156083409296 -0.11651752807438243)"><path d="M0 0 C0.84 -0.04, 4.18 -0.19, 5.01 -0.23 M0 0 C0.84 -0.04, 4.18 -0.19, 5.01 -0.23" stroke="#495057" stroke-width="1" fill="none"></path></g></g><mask></mask><g stroke-linecap="round"><g transform="translate(1026.5848182389955 675.5273835951316) rotate(0 -0.5279793358472489 -3.3207334156181787)"><path d="M0 0 C-0.17 -0.5, -0.97 -1.92, -1.05 -3.03 C-1.13 -4.14, -0.56 -6.04, -0.47 -6.64 M0 0 C-0.17 -0.5, -0.97 -1.92, -1.05 -3.03 C-1.13 -4.14, -0.56 -6.04, -0.47 -6.64" stroke="#495057" stroke-width="1" fill="none"></path></g></g><mask></mask><g stroke-linecap="round"><g transform="translate(1031.4785211712651 675.6439001453573) rotate(0 0.4678338644771429 -3.3207334156181787)"><path d="M0 0 C0.23 -0.5, 1.48 -1.92, 1.4 -3.03 C1.32 -4.14, -0.16 -6.04, -0.47 -6.64 M0 0 C0.23 -0.5, 1.48 -1.92, 1.4 -3.03 C1.32 -4.14, -0.16 -6.04, -0.47 -6.64" stroke="#495057" stroke-width="1" fill="none"></path></g></g><mask></mask><g stroke-linecap="round"><g transform="translate(1031.478521171266 677.8577224224359) rotate(0 -2.0972979040625432 -0.7573614878624539)"><path d="M0 0 C-0.35 -0.25, -1.4 -1.51, -2.1 -1.51 C-2.8 -1.51, -3.85 -0.25, -4.19 0 M0 0 C-0.35 -0.25, -1.4 -1.51, -2.1 -1.51 C-2.8 -1.51, -3.85 -0.25, -4.19 0" stroke="#495057" stroke-width="1" fill="none"></path></g></g><mask></mask><g stroke-linecap="round"><g transform="translate(1001.8687236676451 673.6889353462207) rotate(0 3.335527209962038 0.738361197626773)"><path d="M0 0 C0 0, -0.96 0.83, 0 0 C0.96 -0.83, 4.3 -4.95, 5.76 -5 C7.22 -5.05, 9.68 -2.18, 8.73 -0.32 C7.79 1.55, 1.85 5.38, 0.06 6.2 C-1.72 7.03, -2.86 5.85, -1.96 4.62 C-1.07 3.39, 4.21 -0.23, 5.44 -1.2 M0 0 C0 0, -0.96 0.83, 0 0 C0.96 -0.83, 4.3 -4.95, 5.76 -5 C7.22 -5.05, 9.68 -2.18, 8.73 -0.32 C7.79 1.55, 1.85 5.38, 0.06 6.2 C-1.72 7.03, -2.86 5.85, -1.96 4.62 C-1.07 3.39, 4.21 -0.23, 5.44 -1.2" stroke="#495057" stroke-width="1" fill="none"></path></g></g><mask></mask><g stroke-linecap="round"><g transform="translate(986.485698601884 670.3475198649148) rotate(0 -2.6159932783211843 4.250988162510339)"><path d="M0 0 C-0.87 1.42, -4.36 7.08, -5.23 8.5 M0 0 C-0.87 1.42, -4.36 7.08, -5.23 8.5" stroke="#495057" stroke-width="1" fill="none"></path></g></g><mask></mask><g stroke-linecap="round"><g transform="translate(851.0621354793602 693.1211373814763) rotate(0 2.746787970811056 -13.406975613782834)"><path d="M0 -10.46 C0.17 -11.24, 0.1 -14.11, 1.02 -15.09 C1.94 -16.08, 4.75 -16.14, 5.49 -16.35 M0 -10.46 C0.17 -11.24, 0.1 -14.11, 1.02 -15.09 C1.94 -16.08, 4.75 -16.14, 5.49 -16.35" stroke="#495057" stroke-width="1" fill="none"></path></g></g><mask></mask><g stroke-linecap="round"><g transform="translate(851.8855159337854 671.1250642216323) rotate(0 0.009916136710671708 0.7590220403951662)"><path d="M0 0 C0 0.25, 0.02 1.27, 0.02 1.52 M0 0 C0 0.25, 0.02 1.27, 0.02 1.52" stroke="#495057" stroke-width="1" fill="none"></path></g></g><mask></mask><g stroke-linecap="round"><g transform="translate(844.8878879738113 672.9423231375317) rotate(0 -0.010310329642834404 -0.8698875519642115)"><path d="M0 0 C0 -0.29, -0.02 -1.45, -0.02 -1.74 M0 0 C0 -0.29, -0.02 -1.45, -0.02 -1.74" stroke="#495057" stroke-width="1" fill="none"></path></g></g><mask></mask><g stroke-linecap="round"><g transform="translate(845.3083032435625 677.9979499333435) rotate(0 3.5107531935464067 1.2663476152615658)"><path d="M0 0 C0.35 0.37, 1.27 1.84, 2.11 2.22 C2.96 2.6, 4.25 2.64, 5.07 2.29 C5.88 1.94, 6.7 0.47, 7.02 0.1 M0 0 C0.35 0.37, 1.27 1.84, 2.11 2.22 C2.96 2.6, 4.25 2.64, 5.07 2.29 C5.88 1.94, 6.7 0.47, 7.02 0.1" stroke="#495057" stroke-width="1" fill="none"></path></g></g><mask></mask><g stroke-linecap="round" transform="translate(845.7415976585917 321.9621180450613) rotate(0 65.85103278459428 38.21215924637045)"><path d="M19.11 0 M19.11 0 C46.47 0, 73.83 0, 112.6 0 M19.11 0 C48.01 0, 76.92 0, 112.6 0 M112.6 0 C125.33 0, 131.7 6.37, 131.7 19.11 M112.6 0 C125.33 0, 131.7 6.37, 131.7 19.11 M131.7 19.11 C131.7 27.65, 131.7 36.2, 131.7 57.32 M131.7 19.11 C131.7 27.23, 131.7 35.35, 131.7 57.32 M131.7 57.32 C131.7 70.06, 125.33 76.42, 112.6 76.42 M131.7 57.32 C131.7 70.06, 125.33 76.42, 112.6 76.42 M112.6 76.42 C87.15 76.42, 61.71 76.42, 19.11 76.42 M112.6 76.42 C90.83 76.42, 69.07 76.42, 19.11 76.42 M19.11 76.42 C6.37 76.42, 0 70.06, 0 57.32 M19.11 76.42 C6.37 76.42, 0 70.06, 0 57.32 M0 57.32 C0 46.73, 0 36.13, 0 19.11 M0 57.32 C0 45.4, 0 33.47, 0 19.11 M0 19.11 C0 6.37, 6.37 0, 19.11 0 M0 19.11 C0 6.37, 6.37 0, 19.11 0" stroke="#495057" stroke-width="1" fill="none"></path></g><g transform="translate(855.2008566384247 331.09386993669114) rotate(0 38.5 10.5)"><text x="0" y="15" font-family="Virgil, Segoe UI Emoji" font-size="16px" fill="#495057" text-anchor="start" style="white-space: pre;" direction="ltr">new visit </text></g><g transform="translate(855.2008566384247 352.4517968709106) rotate(0 42 10.5)"><text x="0" y="15" font-family="Virgil, Segoe UI Emoji" font-size="16px" fill="#495057" text-anchor="start" style="white-space: pre;" direction="ltr">at 5:00pm</text></g><g transform="translate(854.0143084613928 372.02990153958126) rotate(0 52.5 10.5)"><text x="0" y="15" font-family="Virgil, Segoe UI Emoji" font-size="16px" fill="#495057" text-anchor="start" style="white-space: pre;" direction="ltr">in 2/2/2022</text></g><g stroke-linecap="round" transform="translate(846.9623762436959 419.624691719318) rotate(0 65.85103278459428 38.21215924637045)"><path d="M19.11 0 M19.11 0 C44.52 0, 69.93 0, 112.6 0 M19.11 0 C41.12 0, 63.14 0, 112.6 0 M112.6 0 C125.33 0, 131.7 6.37, 131.7 19.11 M112.6 0 C125.33 0, 131.7 6.37, 131.7 19.11 M131.7 19.11 C131.7 27.78, 131.7 36.46, 131.7 57.32 M131.7 19.11 C131.7 30.03, 131.7 40.96, 131.7 57.32 M131.7 57.32 C131.7 70.06, 125.33 76.42, 112.6 76.42 M131.7 57.32 C131.7 70.06, 125.33 76.42, 112.6 76.42 M112.6 76.42 C86.45 76.42, 60.3 76.42, 19.11 76.42 M112.6 76.42 C79.54 76.42, 46.48 76.42, 19.11 76.42 M19.11 76.42 C6.37 76.42, 0 70.06, 0 57.32 M19.11 76.42 C6.37 76.42, 0 70.06, 0 57.32 M0 57.32 C0 47.09, 0 36.86, 0 19.11 M0 57.32 C0 42.27, 0 27.22, 0 19.11 M0 19.11 C0 6.37, 6.37 0, 19.11 0 M0 19.11 C0 6.37, 6.37 0, 19.11 0" stroke="#495057" stroke-width="1" fill="none"></path></g><g transform="translate(856.4216352235289 428.7564436109478) rotate(0 38.5 10.5)"><text x="0" y="15" font-family="Virgil, Segoe UI Emoji" font-size="16px" fill="#495057" text-anchor="start" style="white-space: pre;" direction="ltr">new visit </text></g><g transform="translate(856.4216352235289 450.1143705451673) rotate(0 44.5 10.5)"><text x="0" y="15" font-family="Virgil, Segoe UI Emoji" font-size="16px" fill="#495057" text-anchor="start" style="white-space: pre;" direction="ltr">at 10:00pm</text></g><g transform="translate(855.235087046497 469.69247521383795) rotate(0 52.5 10.5)"><text x="0" y="15" font-family="Virgil, Segoe UI Emoji" font-size="16px" fill="#495057" text-anchor="start" style="white-space: pre;" direction="ltr">in 2/2/2022</text></g><g stroke-linecap="round" transform="translate(849.7929813682013 513.0349142195314) rotate(0 65.85103278459428 38.21215924637045)"><path d="M19.11 0 M19.11 0 C44.1 0, 69.09 0, 112.6 0 M19.11 0 C51.38 0, 83.66 0, 112.6 0 M112.6 0 C125.33 0, 131.7 6.37, 131.7 19.11 M112.6 0 C125.33 0, 131.7 6.37, 131.7 19.11 M131.7 19.11 C131.7 33.41, 131.7 47.71, 131.7 57.32 M131.7 19.11 C131.7 28.71, 131.7 38.31, 131.7 57.32 M131.7 57.32 C131.7 70.06, 125.33 76.42, 112.6 76.42 M131.7 57.32 C131.7 70.06, 125.33 76.42, 112.6 76.42 M112.6 76.42 C75.29 76.42, 37.98 76.42, 19.11 76.42 M112.6 76.42 C76.68 76.42, 40.76 76.42, 19.11 76.42 M19.11 76.42 C6.37 76.42, 0 70.06, 0 57.32 M19.11 76.42 C6.37 76.42, 0 70.06, 0 57.32 M0 57.32 C0 46.66, 0 36.01, 0 19.11 M0 57.32 C0 49.19, 0 41.06, 0 19.11 M0 19.11 C0 6.37, 6.37 0, 19.11 0 M0 19.11 C0 6.37, 6.37 0, 19.11 0" stroke="#495057" stroke-width="1" fill="none"></path></g><g transform="translate(859.2522403480343 522.1666661111612) rotate(0 38.5 10.5)"><text x="0" y="15" font-family="Virgil, Segoe UI Emoji" font-size="16px" fill="#495057" text-anchor="start" style="white-space: pre;" direction="ltr">new visit </text></g><g transform="translate(859.2522403480343 543.5245930453807) rotate(0 44.5 10.5)"><text x="0" y="15" font-family="Virgil, Segoe UI Emoji" font-size="16px" fill="#495057" text-anchor="start" style="white-space: pre;" direction="ltr">at 10:00pm</text></g><g transform="translate(858.0656921710024 563.1026977140514) rotate(0 52.5 10.5)"><text x="0" y="15" font-family="Virgil, Segoe UI Emoji" font-size="16px" fill="#495057" text-anchor="start" style="white-space: pre;" direction="ltr">in 2/2/2022</text></g><g transform="translate(856.1829111002389 612.4848894539732) rotate(0 38.5 10.5)"><text x="0" y="15" font-family="Virgil, Segoe UI Emoji" font-size="16px" fill="#495057" text-anchor="start" style="white-space: pre;" direction="ltr">new visit </text></g><g transform="translate(856.1829111002389 633.8428163881927) rotate(0 44 10.5)"><text x="0" y="15" font-family="Virgil, Segoe UI Emoji" font-size="16px" fill="#495057" text-anchor="start" style="white-space: pre;" direction="ltr">at 10:04pm</text></g><g stroke-linecap="round"><g transform="translate(979.3349513853791 667.248219235983) rotate(0 -66.23464442931618 -36.01224690628669)"><path d="M0 -8.96 C-1.91 -17.09, 8.77 -49.59, -11.44 -57.72 C-31.66 -65.85, -101.19 -65.98, -121.31 -57.72 C-141.44 -49.46, -130.37 -16.42, -132.19 -8.16 M0 -8.96 C-1.91 -17.09, 8.77 -49.59, -11.44 -57.72 C-31.66 -65.85, -101.19 -65.98, -121.31 -57.72 C-141.44 -49.46, -130.37 -16.42, -132.19 -8.16" stroke="#495057" stroke-width="1" fill="none"></path></g></g><mask></mask><g stroke-linecap="round" transform="translate(1005.757427585615 622.598497785702) rotate(0 12.718853452219264 12.718845545493878)"><path d="M25.44 12.72 C25.44 13.46, 25.37 14.2, 25.24 14.93 C25.12 15.65, 24.92 16.38, 24.67 17.07 C24.42 17.76, 24.1 18.44, 23.73 19.08 C23.37 19.72, 22.94 20.33, 22.46 20.89 C21.99 21.46, 21.46 21.99, 20.89 22.46 C20.33 22.94, 19.72 23.37, 19.08 23.73 C18.44 24.1, 17.76 24.42, 17.07 24.67 C16.38 24.92, 15.65 25.12, 14.93 25.24 C14.2 25.37, 13.46 25.44, 12.72 25.44 C11.98 25.44, 11.24 25.37, 10.51 25.24 C9.79 25.12, 9.06 24.92, 8.37 24.67 C7.68 24.42, 7 24.1, 6.36 23.73 C5.72 23.37, 5.11 22.94, 4.54 22.46 C3.98 21.99, 3.45 21.46, 2.98 20.89 C2.5 20.33, 2.07 19.72, 1.7 19.08 C1.34 18.44, 1.02 17.76, 0.77 17.07 C0.52 16.38, 0.32 15.65, 0.19 14.93 C0.07 14.2, 0 13.46, 0 12.72 C0 11.98, 0.07 11.24, 0.19 10.51 C0.32 9.79, 0.52 9.06, 0.77 8.37 C1.02 7.68, 1.34 7, 1.7 6.36 C2.07 5.72, 2.5 5.11, 2.98 4.54 C3.45 3.98, 3.98 3.45, 4.54 2.98 C5.11 2.5, 5.72 2.07, 6.36 1.7 C7 1.34, 7.68 1.02, 8.37 0.77 C9.06 0.52, 9.79 0.32, 10.51 0.19 C11.24 0.07, 11.98 0, 12.72 0 C13.46 0, 14.2 0.07, 14.93 0.19 C15.65 0.32, 16.38 0.52, 17.07 0.77 C17.76 1.02, 18.44 1.34, 19.08 1.7 C19.72 2.07, 20.33 2.5, 20.89 2.98 C21.46 3.45, 21.99 3.98, 22.46 4.54 C22.94 5.11, 23.37 5.72, 23.73 6.36 C24.1 7, 24.42 7.68, 24.67 8.37 C24.92 9.06, 25.12 9.79, 25.24 10.51 C25.37 11.24, 25.41 12.35, 25.44 12.72 C25.47 13.09, 25.47 12.35, 25.44 12.72" stroke="#495057" stroke-width="1" fill="none"></path></g><g stroke-linecap="round"><g transform="translate(1011.5630091705389 635.1221055717783) rotate(0 3.5395510838652626 2.921532761034996)"><path d="M0 0 C1.18 0.97, 5.9 4.87, 7.08 5.84 M0 0 C1.18 0.97, 5.9 4.87, 7.08 5.84" stroke="#495057" stroke-width="1" fill="none"></path></g></g><mask></mask><g stroke-linecap="round"><g transform="translate(1018.8668439021812 640.8528010398195) rotate(0 3.033900929027368 -2.6967964250504792)"><path d="M0 0 C1.01 -0.9, 5.06 -4.49, 6.07 -5.39 M0 0 C1.01 -0.9, 5.06 -4.49, 6.07 -5.39" stroke="#495057" stroke-width="1" fill="none"></path></g></g><mask></mask><g stroke-linecap="round" transform="translate(1007.1300183058001 609.810887071952) rotate(0 11.349028426199766 6.580220561468877)"><path d="M22.7 6.58 C22.7 6.96, 22.64 7.35, 22.53 7.72 C22.41 8.1, 22.24 8.47, 22.01 8.83 C21.79 9.19, 21.51 9.54, 21.18 9.87 C20.85 10.2, 20.47 10.52, 20.04 10.81 C19.62 11.1, 19.15 11.38, 18.64 11.62 C18.14 11.87, 17.59 12.09, 17.02 12.28 C16.45 12.47, 15.85 12.63, 15.23 12.76 C14.61 12.89, 13.97 12.99, 13.32 13.06 C12.67 13.13, 12.01 13.16, 11.35 13.16 C10.69 13.16, 10.03 13.13, 9.38 13.06 C8.73 12.99, 8.08 12.89, 7.47 12.76 C6.85 12.63, 6.24 12.47, 5.67 12.28 C5.11 12.09, 4.56 11.87, 4.05 11.62 C3.55 11.38, 3.08 11.1, 2.66 10.81 C2.23 10.52, 1.85 10.2, 1.52 9.87 C1.19 9.54, 0.91 9.19, 0.68 8.83 C0.46 8.47, 0.29 8.1, 0.17 7.72 C0.06 7.35, 0 6.96, 0 6.58 C0 6.2, 0.06 5.81, 0.17 5.44 C0.29 5.06, 0.46 4.69, 0.68 4.33 C0.91 3.97, 1.19 3.62, 1.52 3.29 C1.85 2.96, 2.23 2.64, 2.66 2.35 C3.08 2.06, 3.55 1.78, 4.05 1.54 C4.56 1.29, 5.11 1.07, 5.67 0.88 C6.24 0.69, 6.85 0.53, 7.47 0.4 C8.08 0.27, 8.73 0.17, 9.38 0.1 C10.03 0.03, 10.69 0, 11.35 0 C12.01 0, 12.67 0.03, 13.32 0.1 C13.97 0.17, 14.61 0.27, 15.23 0.4 C15.85 0.53, 16.45 0.69, 17.02 0.88 C17.59 1.07, 18.14 1.29, 18.64 1.54 C19.15 1.78, 19.62 2.06, 20.04 2.35 C20.47 2.64, 20.85 2.96, 21.18 3.29 C21.51 3.62, 21.79 3.97, 22.01 4.33 C22.24 4.69, 22.41 5.06, 22.53 5.44 C22.64 5.81, 22.67 6.39, 22.7 6.58 C22.73 6.77, 22.73 6.39, 22.7 6.58" stroke="#495057" stroke-width="1" fill="none"></path></g><g transform="translate(1014.4200299848944 611.0082840709574) rotate(0 5.5 6)"><text x="0" y="8" font-family="Virgil, Segoe UI Emoji" font-size="8.981758664047701px" fill="#495057" text-anchor="start" style="white-space: pre;" direction="ltr">12</text></g><g stroke-linecap="round"><g transform="translate(228.8640488354804 157.4875589242174) rotate(0 232.37514194243386 -10.358851258387176)"><path d="M0 0 C7.39 -9.84, -25.19 -51.67, 44.34 -59.06 C113.88 -66.46, 346.92 -61.16, 417.21 -44.38 C487.51 -27.6, 457.96 27.28, 466.11 41.61 M0 0 C7.39 -9.84, -25.19 -51.67, 44.34 -59.06 C113.88 -66.46, 346.92 -61.16, 417.21 -44.38 C487.51 -27.6, 457.96 27.28, 466.11 41.61" stroke="#495057" stroke-width="1" fill="none"></path></g><g transform="translate(228.8640488354804 157.4875589242174) rotate(0 232.37514194243386 -10.358851258387176)"><path d="M454.73 13.85 C457.5 20.6, 460.26 27.34, 466.11 41.61 M454.73 13.85 C458.77 23.7, 462.81 33.55, 466.11 41.61" stroke="#495057" stroke-width="1" fill="none"></path></g><g transform="translate(228.8640488354804 157.4875589242174) rotate(0 232.37514194243386 -10.358851258387176)"><path d="M475.23 13.03 C473.02 19.98, 470.8 26.92, 466.11 41.61 M475.23 13.03 C472 23.17, 468.76 33.32, 466.11 41.61" stroke="#495057" stroke-width="1" fill="none"></path></g></g><mask></mask><g stroke-linecap="round" transform="translate(591.0188371596614 238.1806580716675) rotate(0 103.60436199203787 229.67921521659446)"><path d="M32 0 M32 0 C88.19 -1.88, 143.59 0.95, 175.21 0 M32 0 C67.39 -0.07, 102.82 0.98, 175.21 0 M175.21 0 C196.35 -0.18, 208.72 12.48, 207.21 32 M175.21 0 C196.71 -1.23, 208.57 8.49, 207.21 32 M207.21 32 C206.44 169.13, 204.8 306.18, 207.21 427.36 M207.21 32 C207.32 122.21, 207.74 212.73, 207.21 427.36 M207.21 427.36 C205.93 447.23, 197.23 460.18, 175.21 459.36 M207.21 427.36 C207.08 448.29, 196.05 460.78, 175.21 459.36 M175.21 459.36 C127.36 458.07, 79.91 460.16, 32 459.36 M175.21 459.36 C122.76 459.2, 72.13 458.42, 32 459.36 M32 459.36 C10.79 457.94, -1.83 449.36, 0 427.36 M32 459.36 C10.09 460.1, 0.9 446.81, 0 427.36 M0 427.36 C0.14 322.96, -0.51 219.39, 0 32 M0 427.36 C1.08 322, 1.37 216.59, 0 32 M0 32 C0.96 9.03, 12.31 1.56, 32 0 M0 32 C1.51 8.42, 12.58 -0.34, 32 0" stroke="#000000" stroke-width="1" fill="none"></path></g><g stroke-linecap="round" transform="translate(651.1324473817604 238.34445965218038) rotate(0 39.66450530868997 7.437094745379454)"><path d="M3.72 0 M3.72 0 C29.1 0, 54.49 0, 75.61 0 M3.72 0 C27.43 0, 51.14 0, 75.61 0 M75.61 0 C78.09 0, 79.33 1.24, 79.33 3.72 M75.61 0 C78.09 0, 79.33 1.24, 79.33 3.72 M79.33 3.72 C79.33 5.98, 79.33 8.25, 79.33 11.16 M79.33 3.72 C79.33 6.21, 79.33 8.69, 79.33 11.16 M79.33 11.16 C79.33 13.63, 78.09 14.87, 75.61 14.87 M79.33 11.16 C79.33 13.63, 78.09 14.87, 75.61 14.87 M75.61 14.87 C54.04 14.87, 32.48 14.87, 3.72 14.87 M75.61 14.87 C60.78 14.87, 45.95 14.87, 3.72 14.87 M3.72 14.87 C1.24 14.87, 0 13.63, 0 11.16 M3.72 14.87 C1.24 14.87, 0 13.63, 0 11.16 M0 11.16 C0 9.6, 0 8.04, 0 3.72 M0 11.16 C0 8.41, 0 5.66, 0 3.72 M0 3.72 C0 1.24, 1.24 0, 3.72 0 M0 3.72 C0 1.24, 1.24 0, 3.72 0" stroke="#000000" stroke-width="1" fill="none"></path></g><g stroke-linecap="round"><g transform="translate(645.6965836813561 692.7703168573703) rotate(0 44.81725687140579 0)"><path d="M0 0 C14.94 0, 74.7 0, 89.63 0 M0 0 C14.94 0, 74.7 0, 89.63 0" stroke="#495057" stroke-width="1" fill="none"></path></g></g><mask></mask><g stroke-linecap="round" transform="translate(614.5466282567622 244.34664273147382) rotate(0 11.113955631287809 3.774549574519142)"><path d="M1.89 0 M1.89 0 C7.94 0, 13.99 0, 20.34 0 M1.89 0 C8.5 0, 15.1 0, 20.34 0 M20.34 0 C21.6 0, 22.23 0.63, 22.23 1.89 M20.34 0 C21.6 0, 22.23 0.63, 22.23 1.89 M22.23 1.89 C22.23 3.17, 22.23 4.45, 22.23 5.66 M22.23 1.89 C22.23 2.78, 22.23 3.67, 22.23 5.66 M22.23 5.66 C22.23 6.92, 21.6 7.55, 20.34 7.55 M22.23 5.66 C22.23 6.92, 21.6 7.55, 20.34 7.55 M20.34 7.55 C16.41 7.55, 12.49 7.55, 1.89 7.55 M20.34 7.55 C15.1 7.55, 9.86 7.55, 1.89 7.55 M1.89 7.55 C0.63 7.55, 0 6.92, 0 5.66 M1.89 7.55 C0.63 7.55, 0 6.92, 0 5.66 M0 5.66 C0 4.85, 0 4.03, 0 1.89 M0 5.66 C0 4.25, 0 2.84, 0 1.89 M0 1.89 C0 0.63, 0.63 0, 1.89 0 M0 1.89 C0 0.63, 0.63 0, 1.89 0" stroke="#495057" stroke-width="1" fill="none"></path></g><g transform="translate(630.2749631302759 291.4462995326744) rotate(0 59.5 28)"><text x="0" y="40" font-family="Virgil, Segoe UI Emoji" font-size="44.942765459541796px" fill="#495057" text-anchor="start" style="white-space: pre;" direction="ltr">12:00</text></g><g transform="translate(614.1775679733155 248.7645477165829) rotate(0 0.1121886566311332 0.11219242286756526)" stroke="none"><path fill="#495057" d="M 2.12,-0.66 Q 2.12,-0.66 2.15,-0.13 2.18,0.40 1.96,0.88 1.74,1.36 1.32,1.69 0.91,2.02 0.38,2.12 -0.13,2.21 -0.64,2.05 -1.14,1.90 -1.52,1.52 -1.90,1.14 -2.05,0.64 -2.21,0.13 -2.12,-0.38 -2.02,-0.91 -1.69,-1.32 -1.36,-1.74 -0.88,-1.96 -0.39,-2.18 0.13,-2.15 0.66,-2.11 1.11,-1.84 1.57,-1.56 1.84,-1.11 L 2.12,-0.66 Z"></path></g><g stroke-linecap="round" transform="translate(601.7162264116487 412.9891787667748) rotate(0 91.6262233880343 26.02910613643303)"><path d="M13.01 0 M13.01 0 C68.55 0, 124.09 0, 170.24 0 M13.01 0 C74.44 0, 135.87 0, 170.24 0 M170.24 0 C178.91 0, 183.25 4.34, 183.25 13.01 M170.24 0 C178.91 0, 183.25 4.34, 183.25 13.01 M183.25 13.01 C183.25 22.05, 183.25 31.08, 183.25 39.04 M183.25 13.01 C183.25 19.96, 183.25 26.91, 183.25 39.04 M183.25 39.04 C183.25 47.72, 178.91 52.06, 170.24 52.06 M183.25 39.04 C183.25 47.72, 178.91 52.06, 170.24 52.06 M170.24 52.06 C126.35 52.06, 82.47 52.06, 13.01 52.06 M170.24 52.06 C138.16 52.06, 106.09 52.06, 13.01 52.06 M13.01 52.06 C4.34 52.06, 0 47.72, 0 39.04 M13.01 52.06 C4.34 52.06, 0 47.72, 0 39.04 M0 39.04 C0 32.74, 0 26.44, 0 13.01 M0 39.04 C0 30.35, 0 21.65, 0 13.01 M0 13.01 C0 4.34, 4.34 0, 13.01 0 M0 13.01 C0 4.34, 4.34 0, 13.01 0" stroke="#495057" stroke-width="1" fill="none"></path></g><g transform="translate(648.9168478769516 426.4960516746937) rotate(0 48 6)"><text x="0" y="8" font-family="Virgil, Segoe UI Emoji" font-size="9.606520816850866px" fill="#495057" text-anchor="start" style="white-space: pre;" direction="ltr">your website visited</text></g><g stroke-linecap="round" transform="translate(635.2831361872604 443.929270939193) rotate(0 5.102148983064126 5.393696928010968)"><path d="M10.2 5.39 C10.2 5.71, 10.18 6.02, 10.13 6.33 C10.08 6.64, 10 6.95, 9.9 7.24 C9.8 7.53, 9.67 7.82, 9.52 8.09 C9.37 8.36, 9.2 8.62, 9.01 8.86 C8.82 9.1, 8.61 9.32, 8.38 9.53 C8.16 9.73, 7.91 9.91, 7.65 10.06 C7.4 10.22, 7.12 10.36, 6.85 10.46 C6.57 10.57, 6.28 10.65, 5.99 10.71 C5.7 10.76, 5.4 10.79, 5.1 10.79 C4.81 10.79, 4.51 10.76, 4.22 10.71 C3.93 10.65, 3.63 10.57, 3.36 10.46 C3.08 10.36, 2.81 10.22, 2.55 10.06 C2.3 9.91, 2.05 9.73, 1.82 9.53 C1.6 9.32, 1.38 9.1, 1.19 8.86 C1 8.62, 0.83 8.36, 0.68 8.09 C0.54 7.82, 0.41 7.53, 0.31 7.24 C0.21 6.95, 0.13 6.64, 0.08 6.33 C0.03 6.02, 0 5.71, 0 5.39 C0 5.08, 0.03 4.76, 0.08 4.46 C0.13 4.15, 0.21 3.84, 0.31 3.55 C0.41 3.26, 0.54 2.97, 0.68 2.7 C0.83 2.43, 1 2.17, 1.19 1.93 C1.38 1.69, 1.6 1.46, 1.82 1.26 C2.05 1.06, 2.3 0.88, 2.55 0.72 C2.81 0.57, 3.08 0.43, 3.36 0.33 C3.63 0.22, 3.93 0.14, 4.22 0.08 C4.51 0.03, 4.81 0, 5.1 0 C5.4 0, 5.7 0.03, 5.99 0.08 C6.28 0.14, 6.57 0.22, 6.85 0.33 C7.12 0.43, 7.4 0.57, 7.65 0.72 C7.91 0.88, 8.16 1.06, 8.38 1.26 C8.61 1.46, 8.82 1.69, 9.01 1.93 C9.2 2.17, 9.37 2.43, 9.52 2.7 C9.67 2.97, 9.8 3.26, 9.9 3.55 C10 3.84, 10.08 4.15, 10.13 4.46 C10.18 4.76, 10.19 5.24, 10.2 5.39 C10.22 5.55, 10.22 5.24, 10.2 5.39" stroke="#495057" stroke-width="1" fill="none"></path></g><g stroke-opacity="0.7" fill-opacity="0.7" transform="translate(650.7897230327453 440.1382045946193) rotate(0 31.434393448542778 5.5883366130742615)"><text x="0" y="7.176673226148601" font-family="Virgil, Segoe UI Emoji" font-size="8.86992980055339px" fill="#495057" text-anchor="start" style="white-space: pre;" direction="ltr">new visit at...</text></g><g stroke-opacity="0.7" fill-opacity="0.7" transform="translate(604.0206536680089 396.28763749624386) rotate(0 32.83147760181146 6.286878689708601)"><text x="0" y="8.573757379417176" font-family="Virgil, Segoe UI Emoji" font-size="10.359707708103725px" fill="#495057" text-anchor="start" style="white-space: pre;" direction="ltr">notifications</text></g><g stroke-opacity="0.7" fill-opacity="0.7" stroke-linecap="round" transform="translate(612.3768975536323 657.2234264681883) rotate(0 10.365066285409739 10.461978216149873)"><path d="M20.73 10.46 C20.73 11.07, 20.68 11.68, 20.57 12.28 C20.47 12.88, 20.31 13.47, 20.11 14.04 C19.9 14.61, 19.64 15.17, 19.34 15.69 C19.04 16.22, 18.69 16.72, 18.31 17.19 C17.92 17.65, 17.49 18.09, 17.03 18.48 C16.57 18.87, 16.07 19.22, 15.55 19.52 C15.03 19.83, 14.47 20.09, 13.91 20.29 C13.35 20.5, 12.76 20.66, 12.16 20.77 C11.57 20.87, 10.97 20.92, 10.37 20.92 C9.77 20.92, 9.16 20.87, 8.57 20.77 C7.97 20.66, 7.38 20.5, 6.82 20.29 C6.26 20.09, 5.7 19.83, 5.18 19.52 C4.66 19.22, 4.16 18.87, 3.7 18.48 C3.24 18.09, 2.81 17.65, 2.42 17.19 C2.04 16.72, 1.69 16.22, 1.39 15.69 C1.09 15.17, 0.83 14.61, 0.63 14.04 C0.42 13.47, 0.26 12.88, 0.16 12.28 C0.05 11.68, 0 11.07, 0 10.46 C0 9.86, 0.05 9.24, 0.16 8.65 C0.26 8.05, 0.42 7.45, 0.63 6.88 C0.83 6.31, 1.09 5.76, 1.39 5.23 C1.69 4.71, 2.04 4.2, 2.42 3.74 C2.81 3.27, 3.24 2.84, 3.7 2.45 C4.16 2.06, 4.66 1.7, 5.18 1.4 C5.7 1.1, 6.26 0.84, 6.82 0.63 C7.38 0.42, 7.97 0.26, 8.57 0.16 C9.16 0.05, 9.77 0, 10.37 0 C10.97 0, 11.57 0.05, 12.16 0.16 C12.76 0.26, 13.35 0.42, 13.91 0.63 C14.47 0.84, 15.03 1.1, 15.55 1.4 C16.07 1.7, 16.57 2.06, 17.03 2.45 C17.49 2.84, 17.92 3.27, 18.31 3.74 C18.69 4.2, 19.04 4.71, 19.34 5.23 C19.64 5.76, 19.9 6.31, 20.11 6.88 C20.31 7.45, 20.47 8.05, 20.57 8.65 C20.68 9.24, 20.7 10.16, 20.73 10.46 C20.76 10.76, 20.76 10.16, 20.73 10.46" stroke="#495057" stroke-width="1" fill="none"></path></g><g stroke-opacity="0.7" fill-opacity="0.7" stroke-linecap="round" transform="translate(766.1228574653314 653.9959346049818) rotate(0 10.365066285409739 10.461978216149873)"><path d="M20.73 10.46 C20.73 11.07, 20.68 11.68, 20.57 12.28 C20.47 12.88, 20.31 13.47, 20.11 14.04 C19.9 14.61, 19.64 15.17, 19.34 15.69 C19.04 16.22, 18.69 16.72, 18.31 17.19 C17.92 17.65, 17.49 18.09, 17.03 18.48 C16.57 18.87, 16.07 19.22, 15.55 19.52 C15.03 19.83, 14.47 20.09, 13.91 20.29 C13.35 20.5, 12.76 20.66, 12.16 20.77 C11.57 20.87, 10.97 20.92, 10.37 20.92 C9.77 20.92, 9.16 20.87, 8.57 20.77 C7.97 20.66, 7.38 20.5, 6.82 20.29 C6.26 20.09, 5.7 19.83, 5.18 19.52 C4.66 19.22, 4.16 18.87, 3.7 18.48 C3.24 18.09, 2.81 17.65, 2.42 17.19 C2.04 16.72, 1.69 16.22, 1.39 15.69 C1.09 15.17, 0.83 14.61, 0.63 14.04 C0.42 13.47, 0.26 12.88, 0.16 12.28 C0.05 11.68, 0 11.07, 0 10.46 C0 9.86, 0.05 9.24, 0.16 8.65 C0.26 8.05, 0.42 7.45, 0.63 6.88 C0.83 6.31, 1.09 5.76, 1.39 5.23 C1.69 4.71, 2.04 4.2, 2.42 3.74 C2.81 3.27, 3.24 2.84, 3.7 2.45 C4.16 2.06, 4.66 1.7, 5.18 1.4 C5.7 1.1, 6.26 0.84, 6.82 0.63 C7.38 0.42, 7.97 0.26, 8.57 0.16 C9.16 0.05, 9.77 0, 10.37 0 C10.97 0, 11.57 0.05, 12.16 0.16 C12.76 0.26, 13.35 0.42, 13.91 0.63 C14.47 0.84, 15.03 1.1, 15.55 1.4 C16.07 1.7, 16.57 2.06, 17.03 2.45 C17.49 2.84, 17.92 3.27, 18.31 3.74 C18.69 4.2, 19.04 4.71, 19.34 5.23 C19.64 5.76, 19.9 6.31, 20.11 6.88 C20.31 7.45, 20.47 8.05, 20.57 8.65 C20.68 9.24, 20.7 10.16, 20.73 10.46 C20.76 10.76, 20.76 10.16, 20.73 10.46" stroke="#495057" stroke-width="1" fill="none"></path></g><g stroke-opacity="0.7" fill-opacity="0.7" transform="translate(622.9219160771045 664.9684349915501) rotate(0 0 3.6906479390347613)" stroke="none"><path fill="#495057" d="M 2.51,0 Q 2.51,0 2.55,1.00 2.58,2.00 2.68,3.11 2.77,4.23 2.78,5.80 2.79,7.38 2.71,7.82 2.64,8.27 2.43,8.67 2.22,9.06 1.89,9.38 1.56,9.69 1.15,9.88 0.74,10.06 0.29,10.11 -0.15,10.16 -0.59,10.07 -1.03,9.97 -1.41,9.74 -1.80,9.50 -2.09,9.16 -2.39,8.81 -2.55,8.40 -2.72,7.98 -2.74,7.53 -2.77,7.07 -2.65,6.64 -2.53,6.20 -2.27,5.83 -2.02,5.46 -1.66,5.18 -1.30,4.91 -0.87,4.77 -0.45,4.62 0.00,4.62 0.45,4.62 0.87,4.77 1.30,4.91 1.66,5.18 2.02,5.46 2.27,5.83 2.53,6.21 2.65,6.64 2.77,7.08 2.74,7.53 2.72,7.98 2.55,8.40 2.39,8.82 2.09,9.16 1.80,9.50 1.41,9.74 1.03,9.97 0.59,10.07 0.15,10.16 -0.29,10.11 -0.74,10.06 -1.15,9.87 -1.56,9.69 -1.89,9.37 -2.22,9.06 -2.43,8.67 -2.64,8.27 -2.71,7.82 -2.79,7.38 -2.79,7.38 -2.79,7.38 -2.78,5.80 -2.77,4.23 -2.68,3.11 -2.58,2.00 -2.55,1.00 -2.51,0 -2.47,-0.30 -2.43,-0.60 -2.33,-0.88 -2.22,-1.16 -2.05,-1.41 -1.87,-1.66 -1.65,-1.86 -1.42,-2.06 -1.15,-2.20 -0.89,-2.34 -0.59,-2.41 -0.30,-2.49 0.00,-2.49 0.30,-2.49 0.59,-2.41 0.89,-2.34 1.15,-2.20 1.42,-2.06 1.65,-1.86 1.87,-1.66 2.05,-1.41 2.22,-1.16 2.33,-0.88 2.43,-0.60 2.47,-0.30 2.51,0.00 2.51,0.00 L 2.51,0 Z"></path></g><g stroke-opacity="0.7" fill-opacity="0.7" stroke-linecap="round" transform="translate(771.1029116242162 660.5609712054202) rotate(0 5.548578873555471 4.728900717277384)"><path d="M2.36 0 M2.36 0 C4.16 0, 5.96 0, 8.73 0 M2.36 0 C4.76 0, 7.16 0, 8.73 0 M8.73 0 C10.31 0, 11.1 0.79, 11.1 2.36 M8.73 0 C10.31 0, 11.1 0.79, 11.1 2.36 M11.1 2.36 C11.1 3.87, 11.1 5.37, 11.1 7.09 M11.1 2.36 C11.1 4.02, 11.1 5.68, 11.1 7.09 M11.1 7.09 C11.1 8.67, 10.31 9.46, 8.73 9.46 M11.1 7.09 C11.1 8.67, 10.31 9.46, 8.73 9.46 M8.73 9.46 C6.52 9.46, 4.32 9.46, 2.36 9.46 M8.73 9.46 C6.98 9.46, 5.23 9.46, 2.36 9.46 M2.36 9.46 C0.79 9.46, 0 8.67, 0 7.09 M2.36 9.46 C0.79 9.46, 0 8.67, 0 7.09 M0 7.09 C0 5.6, 0 4.1, 0 2.36 M0 7.09 C0 5.77, 0 4.44, 0 2.36 M0 2.36 C0 0.79, 0.79 0, 2.36 0 M0 2.36 C0 0.79, 0.79 0, 2.36 0" stroke="#495057" stroke-width="1" fill="none"></path></g><g stroke-opacity="0.7" fill-opacity="0.7" stroke-linecap="round" transform="translate(775.012129951986 663.7135674503752) rotate(0 1.4501965586232473 1.7024060361763986)"><path d="M2.9 1.7 C2.9 1.8, 2.89 1.9, 2.88 2 C2.86 2.1, 2.84 2.19, 2.81 2.28 C2.78 2.38, 2.75 2.47, 2.71 2.55 C2.66 2.64, 2.62 2.72, 2.56 2.8 C2.51 2.87, 2.45 2.94, 2.38 3.01 C2.32 3.07, 2.25 3.13, 2.18 3.18 C2.1 3.23, 2.03 3.27, 1.95 3.3 C1.87 3.34, 1.78 3.36, 1.7 3.38 C1.62 3.4, 1.53 3.4, 1.45 3.4 C1.37 3.4, 1.28 3.4, 1.2 3.38 C1.12 3.36, 1.03 3.34, 0.95 3.3 C0.88 3.27, 0.8 3.23, 0.73 3.18 C0.65 3.13, 0.58 3.07, 0.52 3.01 C0.45 2.94, 0.39 2.87, 0.34 2.8 C0.29 2.72, 0.24 2.64, 0.19 2.55 C0.15 2.47, 0.12 2.38, 0.09 2.28 C0.06 2.19, 0.04 2.1, 0.02 2 C0.01 1.9, 0 1.8, 0 1.7 C0 1.6, 0.01 1.5, 0.02 1.41 C0.04 1.31, 0.06 1.21, 0.09 1.12 C0.12 1.03, 0.15 0.94, 0.19 0.85 C0.24 0.77, 0.29 0.68, 0.34 0.61 C0.39 0.53, 0.45 0.46, 0.52 0.4 C0.58 0.33, 0.65 0.28, 0.73 0.23 C0.8 0.18, 0.88 0.14, 0.95 0.1 C1.03 0.07, 1.12 0.04, 1.2 0.03 C1.28 0.01, 1.37 0, 1.45 0 C1.53 0, 1.62 0.01, 1.7 0.03 C1.78 0.04, 1.87 0.07, 1.95 0.1 C2.03 0.14, 2.1 0.18, 2.18 0.23 C2.25 0.28, 2.32 0.33, 2.38 0.4 C2.45 0.46, 2.51 0.53, 2.56 0.61 C2.62 0.68, 2.66 0.77, 2.71 0.85 C2.75 0.94, 2.78 1.03, 2.81 1.12 C2.84 1.21, 2.86 1.31, 2.88 1.41 C2.89 1.5, 2.9 1.65, 2.9 1.7 C2.9 1.75, 2.9 1.65, 2.9 1.7" stroke="#495057" stroke-width="1" fill="none"></path></g><g stroke-opacity="0.7" fill-opacity="0.7" stroke-linecap="round" transform="translate(773.4105120783661 661.9587532418859) rotate(0 0.4892263721035306 0.5743096851069822)"><path d="M0.98 0.57 C0.98 0.61, 0.98 0.64, 0.97 0.67 C0.97 0.71, 0.96 0.74, 0.95 0.77 C0.94 0.8, 0.93 0.83, 0.91 0.86 C0.9 0.89, 0.88 0.92, 0.86 0.94 C0.85 0.97, 0.83 0.99, 0.8 1.01 C0.78 1.04, 0.76 1.06, 0.73 1.07 C0.71 1.09, 0.68 1.1, 0.66 1.11 C0.63 1.13, 0.6 1.13, 0.57 1.14 C0.55 1.15, 0.52 1.15, 0.49 1.15 C0.46 1.15, 0.43 1.15, 0.4 1.14 C0.38 1.13, 0.35 1.13, 0.32 1.11 C0.3 1.1, 0.27 1.09, 0.24 1.07 C0.22 1.06, 0.2 1.04, 0.17 1.01 C0.15 0.99, 0.13 0.97, 0.11 0.94 C0.1 0.92, 0.08 0.89, 0.07 0.86 C0.05 0.83, 0.04 0.8, 0.03 0.77 C0.02 0.74, 0.01 0.71, 0.01 0.67 C0 0.64, 0 0.61, 0 0.57 C0 0.54, 0 0.51, 0.01 0.47 C0.01 0.44, 0.02 0.41, 0.03 0.38 C0.04 0.35, 0.05 0.32, 0.07 0.29 C0.08 0.26, 0.1 0.23, 0.11 0.21 C0.13 0.18, 0.15 0.16, 0.17 0.13 C0.2 0.11, 0.22 0.09, 0.24 0.08 C0.27 0.06, 0.3 0.05, 0.32 0.03 C0.35 0.02, 0.38 0.01, 0.4 0.01 C0.43 0, 0.46 0, 0.49 0 C0.52 0, 0.55 0, 0.57 0.01 C0.6 0.01, 0.63 0.02, 0.66 0.03 C0.68 0.05, 0.71 0.06, 0.73 0.08 C0.76 0.09, 0.78 0.11, 0.8 0.13 C0.83 0.16, 0.85 0.18, 0.86 0.21 C0.88 0.23, 0.9 0.26, 0.91 0.29 C0.93 0.32, 0.94 0.35, 0.95 0.38 C0.96 0.41, 0.97 0.44, 0.97 0.47 C0.98 0.51, 0.98 0.56, 0.98 0.57 C0.98 0.59, 0.98 0.56, 0.98 0.57" stroke="#495057" stroke-width="1" fill="none"></path></g><g stroke-opacity="0.7" fill-opacity="0.7" stroke-linecap="round" transform="translate(10 10) rotate(0 602.5032704475561 399.3814152345176)"><path d="M32 0 M32 0 C305.73 0, 579.46 0, 1173.01 0 M32 0 C405.73 0, 779.45 0, 1173.01 0 M1173.01 0 C1194.34 0, 1205.01 10.67, 1205.01 32 M1173.01 0 C1194.34 0, 1205.01 10.67, 1205.01 32 M1205.01 32 C1205.01 242.58, 1205.01 453.16, 1205.01 766.76 M1205.01 32 C1205.01 218.02, 1205.01 404.04, 1205.01 766.76 M1205.01 766.76 C1205.01 788.1, 1194.34 798.76, 1173.01 798.76 M1205.01 766.76 C1205.01 788.1, 1194.34 798.76, 1173.01 798.76 M1173.01 798.76 C742.48 798.76, 311.94 798.76, 32 798.76 M1173.01 798.76 C729.08 798.76, 285.16 798.76, 32 798.76 M32 798.76 C10.67 798.76, 0 788.1, 0 766.76 M32 798.76 C10.67 798.76, 0 788.1, 0 766.76 M0 766.76 C0 508.24, 0 249.71, 0 32 M0 766.76 C0 572.69, 0 378.62, 0 32 M0 32 C0 10.67, 10.67 0, 32 0 M0 32 C0 10.67, 10.67 0, 32 0" stroke="#495057" stroke-width="1" fill="none"></path></g><g stroke-opacity="0.7" fill-opacity="0.7" transform="translate(125.98600166453616 196.22163896433722) rotate(0 102 10.5)"><text x="0" y="15" font-family="Virgil, Segoe UI Emoji" font-size="16px" fill="#495057" text-anchor="start" style="white-space: pre;" direction="ltr">anyone visits this website</text></g><g stroke-linecap="round" transform="translate(612.6101904897059 423.058490663921) rotate(0 14.514932603872694 15.344347578964289)"><path d="M29.03 15.34 C29.03 16.23, 28.96 17.13, 28.81 18.01 C28.66 18.88, 28.44 19.76, 28.15 20.59 C27.87 21.43, 27.51 22.25, 27.09 23.02 C26.67 23.79, 26.17 24.53, 25.63 25.21 C25.09 25.89, 24.49 26.53, 23.84 27.1 C23.2 27.67, 22.5 28.19, 21.77 28.63 C21.04 29.08, 20.27 29.46, 19.48 29.76 C18.69 30.07, 17.86 30.3, 17.04 30.46 C16.21 30.61, 15.36 30.69, 14.51 30.69 C13.67 30.69, 12.82 30.61, 11.99 30.46 C11.17 30.3, 10.34 30.07, 9.55 29.76 C8.76 29.46, 7.99 29.08, 7.26 28.63 C6.53 28.19, 5.83 27.67, 5.18 27.1 C4.54 26.53, 3.94 25.89, 3.4 25.21 C2.86 24.53, 2.36 23.79, 1.94 23.02 C1.52 22.25, 1.16 21.43, 0.88 20.59 C0.59 19.76, 0.37 18.88, 0.22 18.01 C0.07 17.13, 0 16.23, 0 15.34 C0 14.46, 0.07 13.55, 0.22 12.68 C0.37 11.81, 0.59 10.93, 0.88 10.1 C1.16 9.26, 1.52 8.44, 1.94 7.67 C2.36 6.9, 2.86 6.16, 3.4 5.48 C3.94 4.8, 4.54 4.16, 5.18 3.59 C5.83 3.02, 6.53 2.5, 7.26 2.06 C7.99 1.61, 8.76 1.23, 9.55 0.93 C10.34 0.62, 11.17 0.39, 11.99 0.23 C12.82 0.08, 13.67 0, 14.51 0 C15.36 0, 16.21 0.08, 17.04 0.23 C17.86 0.39, 18.69 0.62, 19.48 0.93 C20.27 1.23, 21.04 1.61, 21.77 2.06 C22.5 2.5, 23.2 3.02, 23.84 3.59 C24.49 4.16, 25.09 4.8, 25.63 5.48 C26.17 6.16, 26.67 6.9, 27.09 7.67 C27.51 8.44, 27.87 9.26, 28.15 10.1 C28.44 10.93, 28.66 11.81, 28.81 12.68 C28.96 13.55, 28.99 14.9, 29.03 15.34 C29.07 15.79, 29.07 14.9, 29.03 15.34" stroke="#495057" stroke-width="1" fill="none"></path></g><g stroke-linecap="round"><g stroke-opacity="0.7" fill-opacity="0.7" transform="translate(620.2733049581484 205.85578688851137) rotate(0 205.74241129557322 0)"><path d="M0 0 C68.58 0, 342.9 0, 411.48 0 M0 0 C68.58 0, 342.9 0, 411.48 0" stroke="#495057" stroke-width="1" fill="none"></path></g></g><mask></mask><g stroke-opacity="0.7" fill-opacity="0.7" transform="translate(715.0914201925243 151.38614170621986) rotate(0 51 10.5)"><text x="0" y="15" font-family="Virgil, Segoe UI Emoji" font-size="16px" fill="#000000" text-anchor="start" style="white-space: pre;" direction="ltr">telegram bot</text></g><g stroke-opacity="0.7" fill-opacity="0.7" transform="translate(715.0913591573681 175.02249424528236) rotate(0 131 10.5)"><text x="0" y="15" font-family="Virgil, Segoe UI Emoji" font-size="16px" fill="#495057" text-anchor="start" style="white-space: pre;" direction="ltr">will send messages for each visit</text></g></svg>